<svg viewBox="0 0 640 400" xmlns="http://www.w3.org/2000/svg"><rect width="640" height="400" fill="#2A6DB0"/><rect x="181.0" y="61.0" width="278" height="278" rx="22" fill="#ffffff"/><rect x="195.0" y="75.0" width="250" height="250" rx="12.93" fill="#ffffff"/><rect x="212.24" y="92.24" width="60.39" height="8.67" fill="#111111"/><rect x="281.21" y="92.24" width="34.53" height="8.67" fill="#111111"/><rect x="324.31" y="92.24" width="17.29" height="8.67" fill="#111111"/><rect x="367.41" y="92.24" width="60.39" height="8.67" fill="#111111"/><rect x="212.24" y="100.86" width="8.67" height="8.67" fill="#111111"/><rect x="263.97" y="100.86" width="8.67" height="8.67" fill="#111111"/><rect x="281.21" y="100.86" width="8.67" height="8.67" fill="#111111"/><rect x="307.07" y="100.86" width="8.67" height="8.67" fill="#111111"/><rect x="332.93" y="100.86" width="8.67" height="8.67" fill="#111111"/><rect x="350.17" y="100.86" width="8.67" height="8.67" fill="#111111"/><rect x="367.41" y="100.86" width="8.67" height="8.67" fill="#111111"/><rect x="419.14" y="100.86" width="8.67" height="8.67" fill="#111111"/><rect x="212.24" y="109.48" width="8.67" height="8.67" fill="#111111"/><rect x="229.48" y="109.48" width="25.91" height="8.67" fill="#111111"/><rect x="263.97" y="109.48" width="8.67" height="8.67" fill="#111111"/><rect x="281.21" y="109.48" width="8.67" height="8.67" fill="#111111"/><rect x="298.45" y="109.48" width="8.67" height="8.67" fill="#111111"/><rect x="315.69" y="109.48" width="17.29" height="8.67" fill="#111111"/><rect x="367.41" y="109.48" width="8.67" height="8.67" fill="#111111"/><rect x="384.66" y="109.48" width="25.91" height="8.67" fill="#111111"/><rect x="419.14" y="109.48" width="8.67" height="8.67" fill="#111111"/><rect x="212.24" y="118.10" width="8.67" height="8.67" fill="#111111"/><rect x="229.48" y="118.10" width="25.91" height="8.67" fill="#111111"/><rect x="263.97" y="118.10" width="8.67" height="8.67" fill="#111111"/><rect x="298.45" y="118.10" width="17.29" height="8.67" fill="#111111"/><rect x="324.31" y="118.10" width="8.67" height="8.67" fill="#111111"/><rect x="341.55" y="118.10" width="8.67" height="8.67" fill="#111111"/><rect x="367.41" y="118.10" width="8.67" height="8.67" fill="#111111"/><rect x="384.66" y="118.10" width="25.91" height="8.67" fill="#111111"/><rect x="419.14" y="118.10" width="8.67" height="8.67" fill="#111111"/><rect x="212.24" y="126.72" width="8.67" height="8.67" fill="#111111"/><rect x="229.48" y="126.72" width="25.91" height="8.67" fill="#111111"/><rect x="263.97" y="126.72" width="8.67" height="8.67" fill="#111111"/><rect x="281.21" y="126.72" width="8.67" height="8.67" fill="#111111"/><rect x="315.69" y="126.72" width="43.15" height="8.67" fill="#111111"/><rect x="367.41" y="126.72" width="8.67" height="8.67" fill="#111111"/><rect x="384.66" y="126.72" width="25.91" height="8.67" fill="#111111"/><rect x="419.14" y="126.72" width="8.67" height="8.67" fill="#111111"/><rect x="212.24" y="135.34" width="8.67" height="8.67" fill="#111111"/><rect x="263.97" y="135.34" width="8.67" height="8.67" fill="#111111"/><rect x="324.31" y="135.34" width="17.29" height="8.67" fill="#111111"/><rect x="367.41" y="135.34" width="8.67" height="8.67" fill="#111111"/><rect x="419.14" y="135.34" width="8.67" height="8.67" fill="#111111"/><rect x="212.24" y="143.97" width="60.39" height="8.67" fill="#111111"/><rect x="281.21" y="143.97" width="8.67" height="8.67" fill="#111111"/><rect x="298.45" y="143.97" width="8.67" height="8.67" fill="#111111"/><rect x="315.69" y="143.97" width="8.67" height="8.67" fill="#111111"/><rect x="332.93" y="143.97" width="8.67" height="8.67" fill="#111111"/><rect x="350.17" y="143.97" width="8.67" height="8.67" fill="#111111"/><rect x="367.41" y="143.97" width="60.39" height="8.67" fill="#111111"/><rect x="289.83" y="152.59" width="43.15" height="8.67" fill="#111111"/><rect x="212.24" y="161.21" width="8.67" height="8.67" fill="#111111"/><rect x="238.10" y="161.21" width="51.77" height="8.67" fill="#111111"/><rect x="298.45" y="161.21" width="8.67" height="8.67" fill="#111111"/><rect x="315.69" y="161.21" width="8.67" height="8.67" fill="#111111"/><rect x="332.93" y="161.21" width="34.53" height="8.67" fill="#111111"/><rect x="384.66" y="161.21" width="8.67" height="8.67" fill="#111111"/><rect x="401.90" y="161.21" width="25.91" height="8.67" fill="#111111"/><rect x="212.24" y="169.83" width="8.67" height="8.67" fill="#111111"/><rect x="229.48" y="169.83" width="34.53" height="8.67" fill="#111111"/><rect x="281.21" y="169.83" width="8.67" height="8.67" fill="#111111"/><rect x="298.45" y="169.83" width="8.67" height="8.67" fill="#111111"/><rect x="332.93" y="169.83" width="17.29" height="8.67" fill="#111111"/><rect x="384.66" y="169.83" width="34.53" height="8.67" fill="#111111"/><rect x="229.48" y="178.45" width="17.29" height="8.67" fill="#111111"/><rect x="263.97" y="178.45" width="86.26" height="8.67" fill="#111111"/><rect x="384.66" y="178.45" width="17.29" height="8.67" fill="#111111"/><rect x="419.14" y="178.45" width="8.67" height="8.67" fill="#111111"/><rect x="220.86" y="187.07" width="8.67" height="8.67" fill="#111111"/><rect x="238.10" y="187.07" width="17.29" height="8.67" fill="#111111"/><rect x="272.59" y="187.07" width="8.67" height="8.67" fill="#111111"/><rect x="298.45" y="187.07" width="8.67" height="8.67" fill="#111111"/><rect x="315.69" y="187.07" width="8.67" height="8.67" fill="#111111"/><rect x="341.55" y="187.07" width="25.91" height="8.67" fill="#111111"/><rect x="376.03" y="187.07" width="8.67" height="8.67" fill="#111111"/><rect x="393.28" y="187.07" width="34.53" height="8.67" fill="#111111"/><rect x="220.86" y="195.69" width="8.67" height="8.67" fill="#111111"/><rect x="238.10" y="195.69" width="43.15" height="8.67" fill="#111111"/><rect x="289.83" y="195.69" width="17.29" height="8.67" fill="#111111"/><rect x="341.55" y="195.69" width="17.29" height="8.67" fill="#111111"/><rect x="367.41" y="195.69" width="8.67" height="8.67" fill="#111111"/><rect x="419.14" y="195.69" width="8.67" height="8.67" fill="#111111"/><rect x="212.24" y="204.31" width="8.67" height="8.67" fill="#111111"/><rect x="272.59" y="204.31" width="25.91" height="8.67" fill="#111111"/><rect x="315.69" y="204.31" width="43.15" height="8.67" fill="#111111"/><rect x="384.66" y="204.31" width="8.67" height="8.67" fill="#111111"/><rect x="410.52" y="204.31" width="8.67" height="8.67" fill="#111111"/><rect x="212.24" y="212.93" width="17.29" height="8.67" fill="#111111"/><rect x="238.10" y="212.93" width="17.29" height="8.67" fill="#111111"/><rect x="263.97" y="212.93" width="8.67" height="8.67" fill="#111111"/><rect x="289.83" y="212.93" width="17.29" height="8.67" fill="#111111"/><rect x="324.31" y="212.93" width="8.67" height="8.67" fill="#111111"/><rect x="341.55" y="212.93" width="8.67" height="8.67" fill="#111111"/><rect x="358.79" y="212.93" width="8.67" height="8.67" fill="#111111"/><rect x="384.66" y="212.93" width="43.15" height="8.67" fill="#111111"/><rect x="212.24" y="221.55" width="8.67" height="8.67" fill="#111111"/><rect x="238.10" y="221.55" width="8.67" height="8.67" fill="#111111"/><rect x="272.59" y="221.55" width="8.67" height="8.67" fill="#111111"/><rect x="289.83" y="221.55" width="17.29" height="8.67" fill="#111111"/><rect x="315.69" y="221.55" width="8.67" height="8.67" fill="#111111"/><rect x="341.55" y="221.55" width="8.67" height="8.67" fill="#111111"/><rect x="358.79" y="221.55" width="25.91" height="8.67" fill="#111111"/><rect x="393.28" y="221.55" width="17.29" height="8.67" fill="#111111"/><rect x="419.14" y="221.55" width="8.67" height="8.67" fill="#111111"/><rect x="212.24" y="230.17" width="8.67" height="8.67" fill="#111111"/><rect x="229.48" y="230.17" width="17.29" height="8.67" fill="#111111"/><rect x="255.34" y="230.17" width="17.29" height="8.67" fill="#111111"/><rect x="289.83" y="230.17" width="34.53" height="8.67" fill="#111111"/><rect x="332.93" y="230.17" width="8.67" height="8.67" fill="#111111"/><rect x="350.17" y="230.17" width="43.15" height="8.67" fill="#111111"/><rect x="401.90" y="230.17" width="17.29" height="8.67" fill="#111111"/><rect x="281.21" y="238.79" width="34.53" height="8.67" fill="#111111"/><rect x="350.17" y="238.79" width="8.67" height="8.67" fill="#111111"/><rect x="384.66" y="238.79" width="8.67" height="8.67" fill="#111111"/><rect x="401.90" y="238.79" width="17.29" height="8.67" fill="#111111"/><rect x="212.24" y="247.41" width="60.39" height="8.67" fill="#111111"/><rect x="281.21" y="247.41" width="25.91" height="8.67" fill="#111111"/><rect x="315.69" y="247.41" width="25.91" height="8.67" fill="#111111"/><rect x="350.17" y="247.41" width="8.67" height="8.67" fill="#111111"/><rect x="367.41" y="247.41" width="8.67" height="8.67" fill="#111111"/><rect x="384.66" y="247.41" width="8.67" height="8.67" fill="#111111"/><rect x="419.14" y="247.41" width="8.67" height="8.67" fill="#111111"/><rect x="212.24" y="256.03" width="8.67" height="8.67" fill="#111111"/><rect x="263.97" y="256.03" width="8.67" height="8.67" fill="#111111"/><rect x="281.21" y="256.03" width="34.53" height="8.67" fill="#111111"/><rect x="324.31" y="256.03" width="34.53" height="8.67" fill="#111111"/><rect x="384.66" y="256.03" width="8.67" height="8.67" fill="#111111"/><rect x="410.52" y="256.03" width="17.29" height="8.67" fill="#111111"/><rect x="212.24" y="264.66" width="8.67" height="8.67" fill="#111111"/><rect x="229.48" y="264.66" width="25.91" height="8.67" fill="#111111"/><rect x="263.97" y="264.66" width="8.67" height="8.67" fill="#111111"/><rect x="281.21" y="264.66" width="8.67" height="8.67" fill="#111111"/><rect x="298.45" y="264.66" width="17.29" height="8.67" fill="#111111"/><rect x="324.31" y="264.66" width="8.67" height="8.67" fill="#111111"/><rect x="341.55" y="264.66" width="51.77" height="8.67" fill="#111111"/><rect x="410.52" y="264.66" width="17.29" height="8.67" fill="#111111"/><rect x="212.24" y="273.28" width="8.67" height="8.67" fill="#111111"/><rect x="229.48" y="273.28" width="25.91" height="8.67" fill="#111111"/><rect x="263.97" y="273.28" width="8.67" height="8.67" fill="#111111"/><rect x="281.21" y="273.28" width="8.67" height="8.67" fill="#111111"/><rect x="315.69" y="273.28" width="34.53" height="8.67" fill="#111111"/><rect x="358.79" y="273.28" width="17.29" height="8.67" fill="#111111"/><rect x="410.52" y="273.28" width="17.29" height="8.67" fill="#111111"/><rect x="212.24" y="281.90" width="8.67" height="8.67" fill="#111111"/><rect x="229.48" y="281.90" width="25.91" height="8.67" fill="#111111"/><rect x="263.97" y="281.90" width="8.67" height="8.67" fill="#111111"/><rect x="289.83" y="281.90" width="8.67" height="8.67" fill="#111111"/><rect x="307.07" y="281.90" width="8.67" height="8.67" fill="#111111"/><rect x="324.31" y="281.90" width="8.67" height="8.67" fill="#111111"/><rect x="350.17" y="281.90" width="17.29" height="8.67" fill="#111111"/><rect x="384.66" y="281.90" width="43.15" height="8.67" fill="#111111"/><rect x="212.24" y="290.52" width="8.67" height="8.67" fill="#111111"/><rect x="263.97" y="290.52" width="8.67" height="8.67" fill="#111111"/><rect x="298.45" y="290.52" width="34.53" height="8.67" fill="#111111"/><rect x="367.41" y="290.52" width="25.91" height="8.67" fill="#111111"/><rect x="401.90" y="290.52" width="25.91" height="8.67" fill="#111111"/><rect x="212.24" y="299.14" width="60.39" height="8.67" fill="#111111"/><rect x="281.21" y="299.14" width="8.67" height="8.67" fill="#111111"/><rect x="298.45" y="299.14" width="34.53" height="8.67" fill="#111111"/><rect x="341.55" y="299.14" width="17.29" height="8.67" fill="#111111"/><rect x="367.41" y="299.14" width="8.67" height="8.67" fill="#111111"/><rect x="393.28" y="299.14" width="8.67" height="8.67" fill="#111111"/><rect x="419.14" y="299.14" width="8.67" height="8.67" fill="#111111"/></svg>