<svg viewBox="0 0 800 220" xmlns="http://www.w3.org/2000/svg" font-family="sans-serif"><rect x="12" y="24" width="170" height="172" rx="16" fill="#CC8400"/><text x="28" y="54" font-size="12" font-weight="700" fill="#ffffff" fill-opacity="0.8" letter-spacing="1.5">СҰРАҚ</text><text x="26" y="82" font-size="15" font-weight="600" fill="#ffffff">Естелік</text><text x="26" y="102" font-size="15" font-weight="600" fill="#ffffff">бейнесі қалай</text><text x="26" y="122" font-size="15" font-weight="600" fill="#ffffff">сақталады</text><path d="M188 110 L206 110" stroke="#CC8400" stroke-width="3"/><path d="M200 104 L208 110 L200 116" fill="none" stroke="#CC8400" stroke-width="3"/><rect x="212" y="24" width="170" height="172" rx="16" fill="#F2A93B"/><text x="228" y="54" font-size="12" font-weight="700" fill="#ffffff" fill-opacity="0.8" letter-spacing="1.5">ӘДІС</text><text x="226" y="82" font-size="15" font-weight="600" fill="#ffffff">фМРТ және ЖИ</text><text x="226" y="102" font-size="15" font-weight="600" fill="#ffffff">арқылы</text><text x="226" y="122" font-size="15" font-weight="600" fill="#ffffff">суреттеу</text><path d="M388 110 L406 110" stroke="#CC8400" stroke-width="3"/><path d="M400 104 L408 110 L400 116" fill="none" stroke="#CC8400" stroke-width="3"/><rect x="412" y="24" width="170" height="172" rx="16" fill="#CC8400"/><text x="428" y="54" font-size="12" font-weight="700" fill="#ffffff" fill-opacity="0.8" letter-spacing="1.5">НӘТИЖЕ</text><text x="426" y="82" font-size="15" font-weight="600" fill="#ffffff">Бейнелік код</text><text x="426" y="102" font-size="15" font-weight="600" fill="#ffffff">MT-DMN ішінен</text><text x="426" y="122" font-size="15" font-weight="600" fill="#ffffff">табылды</text><path d="M588 110 L606 110" stroke="#CC8400" stroke-width="3"/><path d="M600 104 L608 110 L600 116" fill="none" stroke="#CC8400" stroke-width="3"/><rect x="612" y="24" width="170" height="172" rx="16" fill="#F2A93B"/><text x="628" y="54" font-size="12" font-weight="700" fill="#ffffff" fill-opacity="0.8" letter-spacing="1.5">МАҢЫЗЫ</text><text x="626" y="82" font-size="15" font-weight="600" fill="#ffffff">Көрнекі жады</text><text x="626" y="102" font-size="15" font-weight="600" fill="#ffffff">субстраты</text><text x="626" y="122" font-size="15" font-weight="600" fill="#ffffff">анықталды</text></svg>