<svg viewBox="0 0 180 208" xmlns="http://www.w3.org/2000/svg" width="180" height="208"><rect x="0" y="0" width="180" height="180" rx="5.51" fill="#ffffff"/><rect x="7.35" y="7.35" width="25.76" height="3.72" fill="#111111"/><rect x="44.08" y="7.35" width="3.72" height="3.72" fill="#111111"/><rect x="51.43" y="7.35" width="7.40" height="3.72" fill="#111111"/><rect x="62.45" y="7.35" width="3.72" height="3.72" fill="#111111"/><rect x="77.14" y="7.35" width="3.72" height="3.72" fill="#111111"/><rect x="84.49" y="7.35" width="3.72" height="3.72" fill="#111111"/><rect x="99.18" y="7.35" width="3.72" height="3.72" fill="#111111"/><rect x="113.88" y="7.35" width="11.07" height="3.72" fill="#111111"/><rect x="128.57" y="7.35" width="3.72" height="3.72" fill="#111111"/><rect x="139.59" y="7.35" width="3.72" height="3.72" fill="#111111"/><rect x="146.94" y="7.35" width="25.76" height="3.72" fill="#111111"/><rect x="7.35" y="11.02" width="3.72" height="3.72" fill="#111111"/><rect x="29.39" y="11.02" width="3.72" height="3.72" fill="#111111"/><rect x="40.41" y="11.02" width="3.72" height="3.72" fill="#111111"/><rect x="51.43" y="11.02" width="11.07" height="3.72" fill="#111111"/><rect x="69.80" y="11.02" width="40.46" height="3.72" fill="#111111"/><rect x="113.88" y="11.02" width="3.72" height="3.72" fill="#111111"/><rect x="124.90" y="11.02" width="3.72" height="3.72" fill="#111111"/><rect x="135.92" y="11.02" width="3.72" height="3.72" fill="#111111"/><rect x="146.94" y="11.02" width="3.72" height="3.72" fill="#111111"/><rect x="168.98" y="11.02" width="3.72" height="3.72" fill="#111111"/><rect x="7.35" y="14.69" width="3.72" height="3.72" fill="#111111"/><rect x="14.69" y="14.69" width="11.07" height="3.72" fill="#111111"/><rect x="29.39" y="14.69" width="3.72" height="3.72" fill="#111111"/><rect x="36.73" y="14.69" width="3.72" height="3.72" fill="#111111"/><rect x="44.08" y="14.69" width="7.40" height="3.72" fill="#111111"/><rect x="66.12" y="14.69" width="3.72" height="3.72" fill="#111111"/><rect x="73.47" y="14.69" width="11.07" height="3.72" fill="#111111"/><rect x="99.18" y="14.69" width="14.74" height="3.72" fill="#111111"/><rect x="117.55" y="14.69" width="3.72" height="3.72" fill="#111111"/><rect x="124.90" y="14.69" width="7.40" height="3.72" fill="#111111"/><rect x="135.92" y="14.69" width="3.72" height="3.72" fill="#111111"/><rect x="146.94" y="14.69" width="3.72" height="3.72" fill="#111111"/><rect x="154.29" y="14.69" width="11.07" height="3.72" fill="#111111"/><rect x="168.98" y="14.69" width="3.72" height="3.72" fill="#111111"/><rect x="7.35" y="18.37" width="3.72" height="3.72" fill="#111111"/><rect x="14.69" y="18.37" width="11.07" height="3.72" fill="#111111"/><rect x="29.39" y="18.37" width="3.72" height="3.72" fill="#111111"/><rect x="36.73" y="18.37" width="3.72" height="3.72" fill="#111111"/><rect x="44.08" y="18.37" width="18.42" height="3.72" fill="#111111"/><rect x="69.80" y="18.37" width="7.40" height="3.72" fill="#111111"/><rect x="80.82" y="18.37" width="11.07" height="3.72" fill="#111111"/><rect x="95.51" y="18.37" width="3.72" height="3.72" fill="#111111"/><rect x="102.86" y="18.37" width="7.40" height="3.72" fill="#111111"/><rect x="117.55" y="18.37" width="7.40" height="3.72" fill="#111111"/><rect x="128.57" y="18.37" width="3.72" height="3.72" fill="#111111"/><rect x="135.92" y="18.37" width="7.40" height="3.72" fill="#111111"/><rect x="146.94" y="18.37" width="3.72" height="3.72" fill="#111111"/><rect x="154.29" y="18.37" width="11.07" height="3.72" fill="#111111"/><rect x="168.98" y="18.37" width="3.72" height="3.72" fill="#111111"/><rect x="7.35" y="22.04" width="3.72" height="3.72" fill="#111111"/><rect x="14.69" y="22.04" width="11.07" height="3.72" fill="#111111"/><rect x="29.39" y="22.04" width="3.72" height="3.72" fill="#111111"/><rect x="36.73" y="22.04" width="3.72" height="3.72" fill="#111111"/><rect x="44.08" y="22.04" width="3.72" height="3.72" fill="#111111"/><rect x="55.10" y="22.04" width="7.40" height="3.72" fill="#111111"/><rect x="77.14" y="22.04" width="25.76" height="3.72" fill="#111111"/><rect x="117.55" y="22.04" width="3.72" height="3.72" fill="#111111"/><rect x="132.24" y="22.04" width="11.07" height="3.72" fill="#111111"/><rect x="146.94" y="22.04" width="3.72" height="3.72" fill="#111111"/><rect x="154.29" y="22.04" width="11.07" height="3.72" fill="#111111"/><rect x="168.98" y="22.04" width="3.72" height="3.72" fill="#111111"/><rect x="7.35" y="25.71" width="3.72" height="3.72" fill="#111111"/><rect x="29.39" y="25.71" width="3.72" height="3.72" fill="#111111"/><rect x="36.73" y="25.71" width="14.74" height="3.72" fill="#111111"/><rect x="69.80" y="25.71" width="3.72" height="3.72" fill="#111111"/><rect x="80.82" y="25.71" width="3.72" height="3.72" fill="#111111"/><rect x="95.51" y="25.71" width="22.09" height="3.72" fill="#111111"/><rect x="121.22" y="25.71" width="3.72" height="3.72" fill="#111111"/><rect x="128.57" y="25.71" width="3.72" height="3.72" fill="#111111"/><rect x="146.94" y="25.71" width="3.72" height="3.72" fill="#111111"/><rect x="168.98" y="25.71" width="3.72" height="3.72" fill="#111111"/><rect x="7.35" y="29.39" width="25.76" height="3.72" fill="#111111"/><rect x="36.73" y="29.39" width="3.72" height="3.72" fill="#111111"/><rect x="44.08" y="29.39" width="3.72" height="3.72" fill="#111111"/><rect x="51.43" y="29.39" width="3.72" height="3.72" fill="#111111"/><rect x="58.78" y="29.39" width="3.72" height="3.72" fill="#111111"/><rect x="66.12" y="29.39" width="3.72" height="3.72" fill="#111111"/><rect x="73.47" y="29.39" width="3.72" height="3.72" fill="#111111"/><rect x="80.82" y="29.39" width="3.72" height="3.72" fill="#111111"/><rect x="88.16" y="29.39" width="3.72" height="3.72" fill="#111111"/><rect x="95.51" y="29.39" width="3.72" height="3.72" fill="#111111"/><rect x="102.86" y="29.39" width="3.72" height="3.72" fill="#111111"/><rect x="110.20" y="29.39" width="3.72" height="3.72" fill="#111111"/><rect x="117.55" y="29.39" width="3.72" height="3.72" fill="#111111"/><rect x="124.90" y="29.39" width="3.72" height="3.72" fill="#111111"/><rect x="132.24" y="29.39" width="3.72" height="3.72" fill="#111111"/><rect x="139.59" y="29.39" width="3.72" height="3.72" fill="#111111"/><rect x="146.94" y="29.39" width="25.76" height="3.72" fill="#111111"/><rect x="36.73" y="33.06" width="3.72" height="3.72" fill="#111111"/><rect x="44.08" y="33.06" width="3.72" height="3.72" fill="#111111"/><rect x="66.12" y="33.06" width="3.72" height="3.72" fill="#111111"/><rect x="80.82" y="33.06" width="3.72" height="3.72" fill="#111111"/><rect x="95.51" y="33.06" width="7.40" height="3.72" fill="#111111"/><rect x="106.53" y="33.06" width="7.40" height="3.72" fill="#111111"/><rect x="117.55" y="33.06" width="3.72" height="3.72" fill="#111111"/><rect x="124.90" y="33.06" width="7.40" height="3.72" fill="#111111"/><rect x="139.59" y="33.06" width="3.72" height="3.72" fill="#111111"/><rect x="7.35" y="36.73" width="3.72" height="3.72" fill="#111111"/><rect x="14.69" y="36.73" width="18.42" height="3.72" fill="#111111"/><rect x="47.76" y="36.73" width="18.42" height="3.72" fill="#111111"/><rect x="69.80" y="36.73" width="3.72" height="3.72" fill="#111111"/><rect x="77.14" y="36.73" width="25.76" height="3.72" fill="#111111"/><rect x="113.88" y="36.73" width="3.72" height="3.72" fill="#111111"/><rect x="121.22" y="36.73" width="3.72" height="3.72" fill="#111111"/><rect x="128.57" y="36.73" width="7.40" height="3.72" fill="#111111"/><rect x="146.94" y="36.73" width="18.42" height="3.72" fill="#111111"/><rect x="14.69" y="40.41" width="14.74" height="3.72" fill="#111111"/><rect x="36.73" y="40.41" width="7.40" height="3.72" fill="#111111"/><rect x="51.43" y="40.41" width="11.07" height="3.72" fill="#111111"/><rect x="66.12" y="40.41" width="3.72" height="3.72" fill="#111111"/><rect x="73.47" y="40.41" width="11.07" height="3.72" fill="#111111"/><rect x="88.16" y="40.41" width="7.40" height="3.72" fill="#111111"/><rect x="99.18" y="40.41" width="3.72" height="3.72" fill="#111111"/><rect x="110.20" y="40.41" width="18.42" height="3.72" fill="#111111"/><rect x="135.92" y="40.41" width="7.40" height="3.72" fill="#111111"/><rect x="154.29" y="40.41" width="7.40" height="3.72" fill="#111111"/><rect x="165.31" y="40.41" width="7.40" height="3.72" fill="#111111"/><rect x="11.02" y="44.08" width="3.72" height="3.72" fill="#111111"/><rect x="22.04" y="44.08" width="3.72" height="3.72" fill="#111111"/><rect x="29.39" y="44.08" width="3.72" height="3.72" fill="#111111"/><rect x="36.73" y="44.08" width="22.09" height="3.72" fill="#111111"/><rect x="62.45" y="44.08" width="11.07" height="3.72" fill="#111111"/><rect x="91.84" y="44.08" width="14.74" height="3.72" fill="#111111"/><rect x="121.22" y="44.08" width="14.74" height="3.72" fill="#111111"/><rect x="143.27" y="44.08" width="11.07" height="3.72" fill="#111111"/><rect x="161.63" y="44.08" width="7.40" height="3.72" fill="#111111"/><rect x="11.02" y="47.76" width="3.72" height="3.72" fill="#111111"/><rect x="18.37" y="47.76" width="11.07" height="3.72" fill="#111111"/><rect x="33.06" y="47.76" width="7.40" height="3.72" fill="#111111"/><rect x="44.08" y="47.76" width="3.72" height="3.72" fill="#111111"/><rect x="51.43" y="47.76" width="7.40" height="3.72" fill="#111111"/><rect x="66.12" y="47.76" width="3.72" height="3.72" fill="#111111"/><rect x="95.51" y="47.76" width="33.11" height="3.72" fill="#111111"/><rect x="132.24" y="47.76" width="3.72" height="3.72" fill="#111111"/><rect x="139.59" y="47.76" width="25.76" height="3.72" fill="#111111"/><rect x="11.02" y="51.43" width="7.40" height="3.72" fill="#111111"/><rect x="22.04" y="51.43" width="11.07" height="3.72" fill="#111111"/><rect x="36.73" y="51.43" width="14.74" height="3.72" fill="#111111"/><rect x="58.78" y="51.43" width="18.42" height="3.72" fill="#111111"/><rect x="84.49" y="51.43" width="7.40" height="3.72" fill="#111111"/><rect x="99.18" y="51.43" width="3.72" height="3.72" fill="#111111"/><rect x="113.88" y="51.43" width="7.40" height="3.72" fill="#111111"/><rect x="132.24" y="51.43" width="3.72" height="3.72" fill="#111111"/><rect x="146.94" y="51.43" width="7.40" height="3.72" fill="#111111"/><rect x="168.98" y="51.43" width="3.72" height="3.72" fill="#111111"/><rect x="7.35" y="55.10" width="3.72" height="3.72" fill="#111111"/><rect x="14.69" y="55.10" width="3.72" height="3.72" fill="#111111"/><rect x="25.71" y="55.10" width="3.72" height="3.72" fill="#111111"/><rect x="33.06" y="55.10" width="3.72" height="3.72" fill="#111111"/><rect x="40.41" y="55.10" width="7.40" height="3.72" fill="#111111"/><rect x="55.10" y="55.10" width="7.40" height="3.72" fill="#111111"/><rect x="66.12" y="55.10" width="3.72" height="3.72" fill="#111111"/><rect x="113.88" y="55.10" width="7.40" height="3.72" fill="#111111"/><rect x="124.90" y="55.10" width="3.72" height="3.72" fill="#111111"/><rect x="139.59" y="55.10" width="7.40" height="3.72" fill="#111111"/><rect x="150.61" y="55.10" width="3.72" height="3.72" fill="#111111"/><rect x="157.96" y="55.10" width="3.72" height="3.72" fill="#111111"/><rect x="168.98" y="55.10" width="3.72" height="3.72" fill="#111111"/><rect x="14.69" y="58.78" width="3.72" height="3.72" fill="#111111"/><rect x="22.04" y="58.78" width="3.72" height="3.72" fill="#111111"/><rect x="29.39" y="58.78" width="3.72" height="3.72" fill="#111111"/><rect x="36.73" y="58.78" width="3.72" height="3.72" fill="#111111"/><rect x="44.08" y="58.78" width="3.72" height="3.72" fill="#111111"/><rect x="51.43" y="58.78" width="36.78" height="3.72" fill="#111111"/><rect x="95.51" y="58.78" width="18.42" height="3.72" fill="#111111"/><rect x="132.24" y="58.78" width="3.72" height="3.72" fill="#111111"/><rect x="139.59" y="58.78" width="3.72" height="3.72" fill="#111111"/><rect x="146.94" y="58.78" width="3.72" height="3.72" fill="#111111"/><rect x="157.96" y="58.78" width="11.07" height="3.72" fill="#111111"/><rect x="18.37" y="62.45" width="3.72" height="3.72" fill="#111111"/><rect x="25.71" y="62.45" width="3.72" height="3.72" fill="#111111"/><rect x="33.06" y="62.45" width="7.40" height="3.72" fill="#111111"/><rect x="44.08" y="62.45" width="7.40" height="3.72" fill="#111111"/><rect x="69.80" y="62.45" width="3.72" height="3.72" fill="#111111"/><rect x="77.14" y="62.45" width="3.72" height="3.72" fill="#111111"/><rect x="99.18" y="62.45" width="3.72" height="3.72" fill="#111111"/><rect x="106.53" y="62.45" width="14.74" height="3.72" fill="#111111"/><rect x="124.90" y="62.45" width="3.72" height="3.72" fill="#111111"/><rect x="132.24" y="62.45" width="3.72" height="3.72" fill="#111111"/><rect x="139.59" y="62.45" width="7.40" height="3.72" fill="#111111"/><rect x="150.61" y="62.45" width="22.09" height="3.72" fill="#111111"/><rect x="18.37" y="66.12" width="3.72" height="3.72" fill="#111111"/><rect x="29.39" y="66.12" width="3.72" height="3.72" fill="#111111"/><rect x="40.41" y="66.12" width="3.72" height="3.72" fill="#111111"/><rect x="51.43" y="66.12" width="7.40" height="3.72" fill="#111111"/><rect x="66.12" y="66.12" width="14.74" height="3.72" fill="#111111"/><rect x="84.49" y="66.12" width="11.07" height="3.72" fill="#111111"/><rect x="121.22" y="66.12" width="3.72" height="3.72" fill="#111111"/><rect x="128.57" y="66.12" width="7.40" height="3.72" fill="#111111"/><rect x="143.27" y="66.12" width="7.40" height="3.72" fill="#111111"/><rect x="165.31" y="66.12" width="3.72" height="3.72" fill="#111111"/><rect x="7.35" y="69.80" width="3.72" height="3.72" fill="#111111"/><rect x="22.04" y="69.80" width="3.72" height="3.72" fill="#111111"/><rect x="40.41" y="69.80" width="3.72" height="3.72" fill="#111111"/><rect x="51.43" y="69.80" width="7.40" height="3.72" fill="#111111"/><rect x="66.12" y="69.80" width="7.40" height="3.72" fill="#111111"/><rect x="77.14" y="69.80" width="7.40" height="3.72" fill="#111111"/><rect x="88.16" y="69.80" width="7.40" height="3.72" fill="#111111"/><rect x="99.18" y="69.80" width="3.72" height="3.72" fill="#111111"/><rect x="106.53" y="69.80" width="7.40" height="3.72" fill="#111111"/><rect x="117.55" y="69.80" width="3.72" height="3.72" fill="#111111"/><rect x="135.92" y="69.80" width="7.40" height="3.72" fill="#111111"/><rect x="150.61" y="69.80" width="14.74" height="3.72" fill="#111111"/><rect x="168.98" y="69.80" width="3.72" height="3.72" fill="#111111"/><rect x="7.35" y="73.47" width="3.72" height="3.72" fill="#111111"/><rect x="29.39" y="73.47" width="18.42" height="3.72" fill="#111111"/><rect x="51.43" y="73.47" width="14.74" height="3.72" fill="#111111"/><rect x="73.47" y="73.47" width="3.72" height="3.72" fill="#111111"/><rect x="80.82" y="73.47" width="7.40" height="3.72" fill="#111111"/><rect x="91.84" y="73.47" width="7.40" height="3.72" fill="#111111"/><rect x="102.86" y="73.47" width="11.07" height="3.72" fill="#111111"/><rect x="124.90" y="73.47" width="14.74" height="3.72" fill="#111111"/><rect x="146.94" y="73.47" width="3.72" height="3.72" fill="#111111"/><rect x="154.29" y="73.47" width="14.74" height="3.72" fill="#111111"/><rect x="7.35" y="77.14" width="3.72" height="3.72" fill="#111111"/><rect x="14.69" y="77.14" width="3.72" height="3.72" fill="#111111"/><rect x="22.04" y="77.14" width="7.40" height="3.72" fill="#111111"/><rect x="40.41" y="77.14" width="11.07" height="3.72" fill="#111111"/><rect x="55.10" y="77.14" width="3.72" height="3.72" fill="#111111"/><rect x="69.80" y="77.14" width="11.07" height="3.72" fill="#111111"/><rect x="91.84" y="77.14" width="3.72" height="3.72" fill="#111111"/><rect x="99.18" y="77.14" width="3.72" height="3.72" fill="#111111"/><rect x="110.20" y="77.14" width="3.72" height="3.72" fill="#111111"/><rect x="117.55" y="77.14" width="11.07" height="3.72" fill="#111111"/><rect x="132.24" y="77.14" width="7.40" height="3.72" fill="#111111"/><rect x="143.27" y="77.14" width="25.76" height="3.72" fill="#111111"/><rect x="11.02" y="80.82" width="29.44" height="3.72" fill="#111111"/><rect x="47.76" y="80.82" width="3.72" height="3.72" fill="#111111"/><rect x="55.10" y="80.82" width="3.72" height="3.72" fill="#111111"/><rect x="62.45" y="80.82" width="3.72" height="3.72" fill="#111111"/><rect x="69.80" y="80.82" width="7.40" height="3.72" fill="#111111"/><rect x="80.82" y="80.82" width="18.42" height="3.72" fill="#111111"/><rect x="106.53" y="80.82" width="3.72" height="3.72" fill="#111111"/><rect x="121.22" y="80.82" width="3.72" height="3.72" fill="#111111"/><rect x="139.59" y="80.82" width="22.09" height="3.72" fill="#111111"/><rect x="22.04" y="84.49" width="3.72" height="3.72" fill="#111111"/><rect x="36.73" y="84.49" width="7.40" height="3.72" fill="#111111"/><rect x="66.12" y="84.49" width="7.40" height="3.72" fill="#111111"/><rect x="77.14" y="84.49" width="7.40" height="3.72" fill="#111111"/><rect x="95.51" y="84.49" width="7.40" height="3.72" fill="#111111"/><rect x="106.53" y="84.49" width="3.72" height="3.72" fill="#111111"/><rect x="117.55" y="84.49" width="11.07" height="3.72" fill="#111111"/><rect x="135.92" y="84.49" width="7.40" height="3.72" fill="#111111"/><rect x="154.29" y="84.49" width="11.07" height="3.72" fill="#111111"/><rect x="168.98" y="84.49" width="3.72" height="3.72" fill="#111111"/><rect x="7.35" y="88.16" width="3.72" height="3.72" fill="#111111"/><rect x="14.69" y="88.16" width="11.07" height="3.72" fill="#111111"/><rect x="29.39" y="88.16" width="3.72" height="3.72" fill="#111111"/><rect x="36.73" y="88.16" width="3.72" height="3.72" fill="#111111"/><rect x="44.08" y="88.16" width="3.72" height="3.72" fill="#111111"/><rect x="51.43" y="88.16" width="11.07" height="3.72" fill="#111111"/><rect x="73.47" y="88.16" width="3.72" height="3.72" fill="#111111"/><rect x="80.82" y="88.16" width="3.72" height="3.72" fill="#111111"/><rect x="88.16" y="88.16" width="3.72" height="3.72" fill="#111111"/><rect x="95.51" y="88.16" width="3.72" height="3.72" fill="#111111"/><rect x="102.86" y="88.16" width="7.40" height="3.72" fill="#111111"/><rect x="113.88" y="88.16" width="3.72" height="3.72" fill="#111111"/><rect x="121.22" y="88.16" width="7.40" height="3.72" fill="#111111"/><rect x="132.24" y="88.16" width="11.07" height="3.72" fill="#111111"/><rect x="146.94" y="88.16" width="3.72" height="3.72" fill="#111111"/><rect x="154.29" y="88.16" width="3.72" height="3.72" fill="#111111"/><rect x="161.63" y="88.16" width="7.40" height="3.72" fill="#111111"/><rect x="7.35" y="91.84" width="7.40" height="3.72" fill="#111111"/><rect x="22.04" y="91.84" width="3.72" height="3.72" fill="#111111"/><rect x="36.73" y="91.84" width="7.40" height="3.72" fill="#111111"/><rect x="47.76" y="91.84" width="7.40" height="3.72" fill="#111111"/><rect x="66.12" y="91.84" width="11.07" height="3.72" fill="#111111"/><rect x="80.82" y="91.84" width="3.72" height="3.72" fill="#111111"/><rect x="95.51" y="91.84" width="3.72" height="3.72" fill="#111111"/><rect x="106.53" y="91.84" width="7.40" height="3.72" fill="#111111"/><rect x="117.55" y="91.84" width="3.72" height="3.72" fill="#111111"/><rect x="124.90" y="91.84" width="11.07" height="3.72" fill="#111111"/><rect x="139.59" y="91.84" width="3.72" height="3.72" fill="#111111"/><rect x="154.29" y="91.84" width="11.07" height="3.72" fill="#111111"/><rect x="18.37" y="95.51" width="22.09" height="3.72" fill="#111111"/><rect x="44.08" y="95.51" width="3.72" height="3.72" fill="#111111"/><rect x="51.43" y="95.51" width="7.40" height="3.72" fill="#111111"/><rect x="73.47" y="95.51" width="3.72" height="3.72" fill="#111111"/><rect x="80.82" y="95.51" width="25.76" height="3.72" fill="#111111"/><rect x="113.88" y="95.51" width="11.07" height="3.72" fill="#111111"/><rect x="139.59" y="95.51" width="22.09" height="3.72" fill="#111111"/><rect x="165.31" y="95.51" width="3.72" height="3.72" fill="#111111"/><rect x="11.02" y="99.18" width="3.72" height="3.72" fill="#111111"/><rect x="18.37" y="99.18" width="3.72" height="3.72" fill="#111111"/><rect x="33.06" y="99.18" width="11.07" height="3.72" fill="#111111"/><rect x="47.76" y="99.18" width="3.72" height="3.72" fill="#111111"/><rect x="58.78" y="99.18" width="7.40" height="3.72" fill="#111111"/><rect x="69.80" y="99.18" width="11.07" height="3.72" fill="#111111"/><rect x="84.49" y="99.18" width="11.07" height="3.72" fill="#111111"/><rect x="99.18" y="99.18" width="3.72" height="3.72" fill="#111111"/><rect x="113.88" y="99.18" width="7.40" height="3.72" fill="#111111"/><rect x="135.92" y="99.18" width="3.72" height="3.72" fill="#111111"/><rect x="143.27" y="99.18" width="3.72" height="3.72" fill="#111111"/><rect x="150.61" y="99.18" width="3.72" height="3.72" fill="#111111"/><rect x="168.98" y="99.18" width="3.72" height="3.72" fill="#111111"/><rect x="7.35" y="102.86" width="7.40" height="3.72" fill="#111111"/><rect x="18.37" y="102.86" width="22.09" height="3.72" fill="#111111"/><rect x="44.08" y="102.86" width="7.40" height="3.72" fill="#111111"/><rect x="55.10" y="102.86" width="7.40" height="3.72" fill="#111111"/><rect x="66.12" y="102.86" width="3.72" height="3.72" fill="#111111"/><rect x="80.82" y="102.86" width="3.72" height="3.72" fill="#111111"/><rect x="99.18" y="102.86" width="14.74" height="3.72" fill="#111111"/><rect x="121.22" y="102.86" width="18.42" height="3.72" fill="#111111"/><rect x="143.27" y="102.86" width="3.72" height="3.72" fill="#111111"/><rect x="157.96" y="102.86" width="11.07" height="3.72" fill="#111111"/><rect x="11.02" y="106.53" width="3.72" height="3.72" fill="#111111"/><rect x="18.37" y="106.53" width="7.40" height="3.72" fill="#111111"/><rect x="33.06" y="106.53" width="3.72" height="3.72" fill="#111111"/><rect x="47.76" y="106.53" width="3.72" height="3.72" fill="#111111"/><rect x="62.45" y="106.53" width="7.40" height="3.72" fill="#111111"/><rect x="77.14" y="106.53" width="7.40" height="3.72" fill="#111111"/><rect x="91.84" y="106.53" width="7.40" height="3.72" fill="#111111"/><rect x="106.53" y="106.53" width="7.40" height="3.72" fill="#111111"/><rect x="121.22" y="106.53" width="7.40" height="3.72" fill="#111111"/><rect x="135.92" y="106.53" width="3.72" height="3.72" fill="#111111"/><rect x="143.27" y="106.53" width="29.44" height="3.72" fill="#111111"/><rect x="14.69" y="110.20" width="11.07" height="3.72" fill="#111111"/><rect x="29.39" y="110.20" width="3.72" height="3.72" fill="#111111"/><rect x="36.73" y="110.20" width="7.40" height="3.72" fill="#111111"/><rect x="47.76" y="110.20" width="3.72" height="3.72" fill="#111111"/><rect x="55.10" y="110.20" width="3.72" height="3.72" fill="#111111"/><rect x="91.84" y="110.20" width="7.40" height="3.72" fill="#111111"/><rect x="102.86" y="110.20" width="3.72" height="3.72" fill="#111111"/><rect x="113.88" y="110.20" width="7.40" height="3.72" fill="#111111"/><rect x="146.94" y="110.20" width="3.72" height="3.72" fill="#111111"/><rect x="154.29" y="110.20" width="3.72" height="3.72" fill="#111111"/><rect x="165.31" y="110.20" width="3.72" height="3.72" fill="#111111"/><rect x="7.35" y="113.88" width="14.74" height="3.72" fill="#111111"/><rect x="36.73" y="113.88" width="11.07" height="3.72" fill="#111111"/><rect x="51.43" y="113.88" width="3.72" height="3.72" fill="#111111"/><rect x="66.12" y="113.88" width="3.72" height="3.72" fill="#111111"/><rect x="73.47" y="113.88" width="3.72" height="3.72" fill="#111111"/><rect x="88.16" y="113.88" width="7.40" height="3.72" fill="#111111"/><rect x="113.88" y="113.88" width="14.74" height="3.72" fill="#111111"/><rect x="146.94" y="113.88" width="3.72" height="3.72" fill="#111111"/><rect x="157.96" y="113.88" width="3.72" height="3.72" fill="#111111"/><rect x="168.98" y="113.88" width="3.72" height="3.72" fill="#111111"/><rect x="18.37" y="117.55" width="3.72" height="3.72" fill="#111111"/><rect x="29.39" y="117.55" width="7.40" height="3.72" fill="#111111"/><rect x="62.45" y="117.55" width="7.40" height="3.72" fill="#111111"/><rect x="73.47" y="117.55" width="3.72" height="3.72" fill="#111111"/><rect x="84.49" y="117.55" width="3.72" height="3.72" fill="#111111"/><rect x="99.18" y="117.55" width="7.40" height="3.72" fill="#111111"/><rect x="110.20" y="117.55" width="3.72" height="3.72" fill="#111111"/><rect x="121.22" y="117.55" width="7.40" height="3.72" fill="#111111"/><rect x="132.24" y="117.55" width="7.40" height="3.72" fill="#111111"/><rect x="150.61" y="117.55" width="3.72" height="3.72" fill="#111111"/><rect x="157.96" y="117.55" width="11.07" height="3.72" fill="#111111"/><rect x="7.35" y="121.22" width="7.40" height="3.72" fill="#111111"/><rect x="22.04" y="121.22" width="7.40" height="3.72" fill="#111111"/><rect x="33.06" y="121.22" width="3.72" height="3.72" fill="#111111"/><rect x="40.41" y="121.22" width="3.72" height="3.72" fill="#111111"/><rect x="51.43" y="121.22" width="3.72" height="3.72" fill="#111111"/><rect x="73.47" y="121.22" width="3.72" height="3.72" fill="#111111"/><rect x="80.82" y="121.22" width="18.42" height="3.72" fill="#111111"/><rect x="102.86" y="121.22" width="3.72" height="3.72" fill="#111111"/><rect x="110.20" y="121.22" width="7.40" height="3.72" fill="#111111"/><rect x="121.22" y="121.22" width="11.07" height="3.72" fill="#111111"/><rect x="135.92" y="121.22" width="3.72" height="3.72" fill="#111111"/><rect x="146.94" y="121.22" width="7.40" height="3.72" fill="#111111"/><rect x="157.96" y="121.22" width="7.40" height="3.72" fill="#111111"/><rect x="168.98" y="121.22" width="3.72" height="3.72" fill="#111111"/><rect x="7.35" y="124.90" width="3.72" height="3.72" fill="#111111"/><rect x="14.69" y="124.90" width="3.72" height="3.72" fill="#111111"/><rect x="25.71" y="124.90" width="7.40" height="3.72" fill="#111111"/><rect x="58.78" y="124.90" width="3.72" height="3.72" fill="#111111"/><rect x="73.47" y="124.90" width="7.40" height="3.72" fill="#111111"/><rect x="99.18" y="124.90" width="3.72" height="3.72" fill="#111111"/><rect x="113.88" y="124.90" width="11.07" height="3.72" fill="#111111"/><rect x="139.59" y="124.90" width="3.72" height="3.72" fill="#111111"/><rect x="150.61" y="124.90" width="7.40" height="3.72" fill="#111111"/><rect x="14.69" y="128.57" width="3.72" height="3.72" fill="#111111"/><rect x="33.06" y="128.57" width="3.72" height="3.72" fill="#111111"/><rect x="40.41" y="128.57" width="14.74" height="3.72" fill="#111111"/><rect x="66.12" y="128.57" width="7.40" height="3.72" fill="#111111"/><rect x="77.14" y="128.57" width="3.72" height="3.72" fill="#111111"/><rect x="88.16" y="128.57" width="7.40" height="3.72" fill="#111111"/><rect x="99.18" y="128.57" width="3.72" height="3.72" fill="#111111"/><rect x="113.88" y="128.57" width="7.40" height="3.72" fill="#111111"/><rect x="124.90" y="128.57" width="7.40" height="3.72" fill="#111111"/><rect x="139.59" y="128.57" width="7.40" height="3.72" fill="#111111"/><rect x="157.96" y="128.57" width="7.40" height="3.72" fill="#111111"/><rect x="168.98" y="128.57" width="3.72" height="3.72" fill="#111111"/><rect x="22.04" y="132.24" width="3.72" height="3.72" fill="#111111"/><rect x="29.39" y="132.24" width="3.72" height="3.72" fill="#111111"/><rect x="36.73" y="132.24" width="3.72" height="3.72" fill="#111111"/><rect x="44.08" y="132.24" width="7.40" height="3.72" fill="#111111"/><rect x="58.78" y="132.24" width="3.72" height="3.72" fill="#111111"/><rect x="80.82" y="132.24" width="3.72" height="3.72" fill="#111111"/><rect x="88.16" y="132.24" width="3.72" height="3.72" fill="#111111"/><rect x="102.86" y="132.24" width="11.07" height="3.72" fill="#111111"/><rect x="128.57" y="132.24" width="7.40" height="3.72" fill="#111111"/><rect x="139.59" y="132.24" width="7.40" height="3.72" fill="#111111"/><rect x="161.63" y="132.24" width="7.40" height="3.72" fill="#111111"/><rect x="11.02" y="135.92" width="14.74" height="3.72" fill="#111111"/><rect x="36.73" y="135.92" width="7.40" height="3.72" fill="#111111"/><rect x="47.76" y="135.92" width="3.72" height="3.72" fill="#111111"/><rect x="62.45" y="135.92" width="11.07" height="3.72" fill="#111111"/><rect x="91.84" y="135.92" width="11.07" height="3.72" fill="#111111"/><rect x="110.20" y="135.92" width="11.07" height="3.72" fill="#111111"/><rect x="124.90" y="135.92" width="7.40" height="3.72" fill="#111111"/><rect x="135.92" y="135.92" width="14.74" height="3.72" fill="#111111"/><rect x="157.96" y="135.92" width="7.40" height="3.72" fill="#111111"/><rect x="168.98" y="135.92" width="3.72" height="3.72" fill="#111111"/><rect x="7.35" y="139.59" width="3.72" height="3.72" fill="#111111"/><rect x="18.37" y="139.59" width="7.40" height="3.72" fill="#111111"/><rect x="29.39" y="139.59" width="3.72" height="3.72" fill="#111111"/><rect x="44.08" y="139.59" width="11.07" height="3.72" fill="#111111"/><rect x="66.12" y="139.59" width="3.72" height="3.72" fill="#111111"/><rect x="73.47" y="139.59" width="29.44" height="3.72" fill="#111111"/><rect x="106.53" y="139.59" width="3.72" height="3.72" fill="#111111"/><rect x="121.22" y="139.59" width="3.72" height="3.72" fill="#111111"/><rect x="128.57" y="139.59" width="3.72" height="3.72" fill="#111111"/><rect x="139.59" y="139.59" width="18.42" height="3.72" fill="#111111"/><rect x="36.73" y="143.27" width="3.72" height="3.72" fill="#111111"/><rect x="44.08" y="143.27" width="3.72" height="3.72" fill="#111111"/><rect x="51.43" y="143.27" width="3.72" height="3.72" fill="#111111"/><rect x="62.45" y="143.27" width="3.72" height="3.72" fill="#111111"/><rect x="69.80" y="143.27" width="14.74" height="3.72" fill="#111111"/><rect x="95.51" y="143.27" width="3.72" height="3.72" fill="#111111"/><rect x="117.55" y="143.27" width="3.72" height="3.72" fill="#111111"/><rect x="124.90" y="143.27" width="3.72" height="3.72" fill="#111111"/><rect x="135.92" y="143.27" width="7.40" height="3.72" fill="#111111"/><rect x="154.29" y="143.27" width="18.42" height="3.72" fill="#111111"/><rect x="7.35" y="146.94" width="25.76" height="3.72" fill="#111111"/><rect x="40.41" y="146.94" width="11.07" height="3.72" fill="#111111"/><rect x="58.78" y="146.94" width="3.72" height="3.72" fill="#111111"/><rect x="69.80" y="146.94" width="14.74" height="3.72" fill="#111111"/><rect x="88.16" y="146.94" width="3.72" height="3.72" fill="#111111"/><rect x="95.51" y="146.94" width="3.72" height="3.72" fill="#111111"/><rect x="102.86" y="146.94" width="3.72" height="3.72" fill="#111111"/><rect x="110.20" y="146.94" width="3.72" height="3.72" fill="#111111"/><rect x="132.24" y="146.94" width="11.07" height="3.72" fill="#111111"/><rect x="146.94" y="146.94" width="3.72" height="3.72" fill="#111111"/><rect x="154.29" y="146.94" width="3.72" height="3.72" fill="#111111"/><rect x="161.63" y="146.94" width="7.40" height="3.72" fill="#111111"/><rect x="7.35" y="150.61" width="3.72" height="3.72" fill="#111111"/><rect x="29.39" y="150.61" width="3.72" height="3.72" fill="#111111"/><rect x="36.73" y="150.61" width="7.40" height="3.72" fill="#111111"/><rect x="47.76" y="150.61" width="3.72" height="3.72" fill="#111111"/><rect x="69.80" y="150.61" width="3.72" height="3.72" fill="#111111"/><rect x="77.14" y="150.61" width="7.40" height="3.72" fill="#111111"/><rect x="95.51" y="150.61" width="7.40" height="3.72" fill="#111111"/><rect x="106.53" y="150.61" width="11.07" height="3.72" fill="#111111"/><rect x="124.90" y="150.61" width="3.72" height="3.72" fill="#111111"/><rect x="132.24" y="150.61" width="11.07" height="3.72" fill="#111111"/><rect x="154.29" y="150.61" width="14.74" height="3.72" fill="#111111"/><rect x="7.35" y="154.29" width="3.72" height="3.72" fill="#111111"/><rect x="14.69" y="154.29" width="11.07" height="3.72" fill="#111111"/><rect x="29.39" y="154.29" width="3.72" height="3.72" fill="#111111"/><rect x="36.73" y="154.29" width="22.09" height="3.72" fill="#111111"/><rect x="73.47" y="154.29" width="3.72" height="3.72" fill="#111111"/><rect x="80.82" y="154.29" width="18.42" height="3.72" fill="#111111"/><rect x="117.55" y="154.29" width="7.40" height="3.72" fill="#111111"/><rect x="132.24" y="154.29" width="29.44" height="3.72" fill="#111111"/><rect x="165.31" y="154.29" width="3.72" height="3.72" fill="#111111"/><rect x="7.35" y="157.96" width="3.72" height="3.72" fill="#111111"/><rect x="14.69" y="157.96" width="11.07" height="3.72" fill="#111111"/><rect x="29.39" y="157.96" width="3.72" height="3.72" fill="#111111"/><rect x="36.73" y="157.96" width="7.40" height="3.72" fill="#111111"/><rect x="47.76" y="157.96" width="3.72" height="3.72" fill="#111111"/><rect x="55.10" y="157.96" width="7.40" height="3.72" fill="#111111"/><rect x="69.80" y="157.96" width="3.72" height="3.72" fill="#111111"/><rect x="91.84" y="157.96" width="3.72" height="3.72" fill="#111111"/><rect x="106.53" y="157.96" width="3.72" height="3.72" fill="#111111"/><rect x="113.88" y="157.96" width="11.07" height="3.72" fill="#111111"/><rect x="143.27" y="157.96" width="29.44" height="3.72" fill="#111111"/><rect x="7.35" y="161.63" width="3.72" height="3.72" fill="#111111"/><rect x="14.69" y="161.63" width="11.07" height="3.72" fill="#111111"/><rect x="29.39" y="161.63" width="3.72" height="3.72" fill="#111111"/><rect x="36.73" y="161.63" width="14.74" height="3.72" fill="#111111"/><rect x="55.10" y="161.63" width="3.72" height="3.72" fill="#111111"/><rect x="62.45" y="161.63" width="11.07" height="3.72" fill="#111111"/><rect x="84.49" y="161.63" width="11.07" height="3.72" fill="#111111"/><rect x="102.86" y="161.63" width="3.72" height="3.72" fill="#111111"/><rect x="121.22" y="161.63" width="7.40" height="3.72" fill="#111111"/><rect x="132.24" y="161.63" width="14.74" height="3.72" fill="#111111"/><rect x="165.31" y="161.63" width="3.72" height="3.72" fill="#111111"/><rect x="7.35" y="165.31" width="3.72" height="3.72" fill="#111111"/><rect x="29.39" y="165.31" width="3.72" height="3.72" fill="#111111"/><rect x="44.08" y="165.31" width="3.72" height="3.72" fill="#111111"/><rect x="51.43" y="165.31" width="3.72" height="3.72" fill="#111111"/><rect x="62.45" y="165.31" width="7.40" height="3.72" fill="#111111"/><rect x="73.47" y="165.31" width="3.72" height="3.72" fill="#111111"/><rect x="80.82" y="165.31" width="3.72" height="3.72" fill="#111111"/><rect x="88.16" y="165.31" width="3.72" height="3.72" fill="#111111"/><rect x="99.18" y="165.31" width="3.72" height="3.72" fill="#111111"/><rect x="106.53" y="165.31" width="11.07" height="3.72" fill="#111111"/><rect x="124.90" y="165.31" width="11.07" height="3.72" fill="#111111"/><rect x="143.27" y="165.31" width="3.72" height="3.72" fill="#111111"/><rect x="157.96" y="165.31" width="7.40" height="3.72" fill="#111111"/><rect x="7.35" y="168.98" width="25.76" height="3.72" fill="#111111"/><rect x="36.73" y="168.98" width="7.40" height="3.72" fill="#111111"/><rect x="47.76" y="168.98" width="7.40" height="3.72" fill="#111111"/><rect x="58.78" y="168.98" width="7.40" height="3.72" fill="#111111"/><rect x="69.80" y="168.98" width="3.72" height="3.72" fill="#111111"/><rect x="77.14" y="168.98" width="3.72" height="3.72" fill="#111111"/><rect x="88.16" y="168.98" width="3.72" height="3.72" fill="#111111"/><rect x="95.51" y="168.98" width="3.72" height="3.72" fill="#111111"/><rect x="106.53" y="168.98" width="3.72" height="3.72" fill="#111111"/><rect x="128.57" y="168.98" width="7.40" height="3.72" fill="#111111"/><rect x="139.59" y="168.98" width="3.72" height="3.72" fill="#111111"/><rect x="146.94" y="168.98" width="14.74" height="3.72" fill="#111111"/><rect x="165.31" y="168.98" width="3.72" height="3.72" fill="#111111"/><text x="90.0" y="200" font-size="13" text-anchor="middle" fill="#555555" font-family="sans-serif">Ushbu maqola</text></svg>