<svg viewBox="0 0 340 400" xmlns="http://www.w3.org/2000/svg"><rect x="1" y="1" width="338" height="398" rx="26" fill="#ffffff" stroke="#0f9aa0" stroke-opacity=".55" stroke-width="2"/><rect x="36.0" y="30" width="268" height="268" rx="10.86" fill="#ffffff"/><rect x="50.49" y="44.49" width="50.75" height="7.29" fill="#111111"/><rect x="108.43" y="44.49" width="7.29" height="7.29" fill="#111111"/><rect x="130.16" y="44.49" width="7.29" height="7.29" fill="#111111"/><rect x="151.89" y="44.49" width="7.29" height="7.29" fill="#111111"/><rect x="166.38" y="44.49" width="7.29" height="7.29" fill="#111111"/><rect x="180.86" y="44.49" width="7.29" height="7.29" fill="#111111"/><rect x="202.59" y="44.49" width="7.29" height="7.29" fill="#111111"/><rect x="238.81" y="44.49" width="50.75" height="7.29" fill="#111111"/><rect x="50.49" y="51.73" width="7.29" height="7.29" fill="#111111"/><rect x="93.95" y="51.73" width="7.29" height="7.29" fill="#111111"/><rect x="108.43" y="51.73" width="7.29" height="7.29" fill="#111111"/><rect x="130.16" y="51.73" width="14.54" height="7.29" fill="#111111"/><rect x="166.38" y="51.73" width="7.29" height="7.29" fill="#111111"/><rect x="188.11" y="51.73" width="7.29" height="7.29" fill="#111111"/><rect x="202.59" y="51.73" width="7.29" height="7.29" fill="#111111"/><rect x="224.32" y="51.73" width="7.29" height="7.29" fill="#111111"/><rect x="238.81" y="51.73" width="7.29" height="7.29" fill="#111111"/><rect x="282.27" y="51.73" width="7.29" height="7.29" fill="#111111"/><rect x="50.49" y="58.97" width="7.29" height="7.29" fill="#111111"/><rect x="64.97" y="58.97" width="21.78" height="7.29" fill="#111111"/><rect x="93.95" y="58.97" width="7.29" height="7.29" fill="#111111"/><rect x="108.43" y="58.97" width="7.29" height="7.29" fill="#111111"/><rect x="122.92" y="58.97" width="7.29" height="7.29" fill="#111111"/><rect x="180.86" y="58.97" width="7.29" height="7.29" fill="#111111"/><rect x="195.35" y="58.97" width="21.78" height="7.29" fill="#111111"/><rect x="238.81" y="58.97" width="7.29" height="7.29" fill="#111111"/><rect x="253.30" y="58.97" width="21.78" height="7.29" fill="#111111"/><rect x="282.27" y="58.97" width="7.29" height="7.29" fill="#111111"/><rect x="50.49" y="66.22" width="7.29" height="7.29" fill="#111111"/><rect x="64.97" y="66.22" width="21.78" height="7.29" fill="#111111"/><rect x="93.95" y="66.22" width="7.29" height="7.29" fill="#111111"/><rect x="115.68" y="66.22" width="14.54" height="7.29" fill="#111111"/><rect x="137.41" y="66.22" width="7.29" height="7.29" fill="#111111"/><rect x="159.14" y="66.22" width="7.29" height="7.29" fill="#111111"/><rect x="173.62" y="66.22" width="14.54" height="7.29" fill="#111111"/><rect x="195.35" y="66.22" width="14.54" height="7.29" fill="#111111"/><rect x="217.08" y="66.22" width="14.54" height="7.29" fill="#111111"/><rect x="238.81" y="66.22" width="7.29" height="7.29" fill="#111111"/><rect x="253.30" y="66.22" width="21.78" height="7.29" fill="#111111"/><rect x="282.27" y="66.22" width="7.29" height="7.29" fill="#111111"/><rect x="50.49" y="73.46" width="7.29" height="7.29" fill="#111111"/><rect x="64.97" y="73.46" width="21.78" height="7.29" fill="#111111"/><rect x="93.95" y="73.46" width="7.29" height="7.29" fill="#111111"/><rect x="108.43" y="73.46" width="14.54" height="7.29" fill="#111111"/><rect x="130.16" y="73.46" width="36.27" height="7.29" fill="#111111"/><rect x="180.86" y="73.46" width="14.54" height="7.29" fill="#111111"/><rect x="238.81" y="73.46" width="7.29" height="7.29" fill="#111111"/><rect x="253.30" y="73.46" width="21.78" height="7.29" fill="#111111"/><rect x="282.27" y="73.46" width="7.29" height="7.29" fill="#111111"/><rect x="50.49" y="80.70" width="7.29" height="7.29" fill="#111111"/><rect x="93.95" y="80.70" width="7.29" height="7.29" fill="#111111"/><rect x="130.16" y="80.70" width="7.29" height="7.29" fill="#111111"/><rect x="144.65" y="80.70" width="14.54" height="7.29" fill="#111111"/><rect x="173.62" y="80.70" width="14.54" height="7.29" fill="#111111"/><rect x="195.35" y="80.70" width="7.29" height="7.29" fill="#111111"/><rect x="209.84" y="80.70" width="14.54" height="7.29" fill="#111111"/><rect x="238.81" y="80.70" width="7.29" height="7.29" fill="#111111"/><rect x="282.27" y="80.70" width="7.29" height="7.29" fill="#111111"/><rect x="50.49" y="87.95" width="50.75" height="7.29" fill="#111111"/><rect x="108.43" y="87.95" width="7.29" height="7.29" fill="#111111"/><rect x="122.92" y="87.95" width="7.29" height="7.29" fill="#111111"/><rect x="137.41" y="87.95" width="7.29" height="7.29" fill="#111111"/><rect x="151.89" y="87.95" width="7.29" height="7.29" fill="#111111"/><rect x="166.38" y="87.95" width="7.29" height="7.29" fill="#111111"/><rect x="180.86" y="87.95" width="7.29" height="7.29" fill="#111111"/><rect x="195.35" y="87.95" width="7.29" height="7.29" fill="#111111"/><rect x="209.84" y="87.95" width="7.29" height="7.29" fill="#111111"/><rect x="224.32" y="87.95" width="7.29" height="7.29" fill="#111111"/><rect x="238.81" y="87.95" width="50.75" height="7.29" fill="#111111"/><rect x="115.68" y="95.19" width="21.78" height="7.29" fill="#111111"/><rect x="144.65" y="95.19" width="7.29" height="7.29" fill="#111111"/><rect x="188.11" y="95.19" width="14.54" height="7.29" fill="#111111"/><rect x="209.84" y="95.19" width="14.54" height="7.29" fill="#111111"/><rect x="50.49" y="102.43" width="7.29" height="7.29" fill="#111111"/><rect x="72.22" y="102.43" width="50.75" height="7.29" fill="#111111"/><rect x="151.89" y="102.43" width="29.02" height="7.29" fill="#111111"/><rect x="188.11" y="102.43" width="7.29" height="7.29" fill="#111111"/><rect x="217.08" y="102.43" width="21.78" height="7.29" fill="#111111"/><rect x="253.30" y="102.43" width="7.29" height="7.29" fill="#111111"/><rect x="267.78" y="102.43" width="21.78" height="7.29" fill="#111111"/><rect x="64.97" y="109.68" width="7.29" height="7.29" fill="#111111"/><rect x="108.43" y="109.68" width="29.02" height="7.29" fill="#111111"/><rect x="151.89" y="109.68" width="14.54" height="7.29" fill="#111111"/><rect x="173.62" y="109.68" width="7.29" height="7.29" fill="#111111"/><rect x="188.11" y="109.68" width="7.29" height="7.29" fill="#111111"/><rect x="202.59" y="109.68" width="21.78" height="7.29" fill="#111111"/><rect x="253.30" y="109.68" width="29.02" height="7.29" fill="#111111"/><rect x="64.97" y="116.92" width="7.29" height="7.29" fill="#111111"/><rect x="86.70" y="116.92" width="29.02" height="7.29" fill="#111111"/><rect x="122.92" y="116.92" width="7.29" height="7.29" fill="#111111"/><rect x="151.89" y="116.92" width="21.78" height="7.29" fill="#111111"/><rect x="195.35" y="116.92" width="14.54" height="7.29" fill="#111111"/><rect x="217.08" y="116.92" width="7.29" height="7.29" fill="#111111"/><rect x="231.57" y="116.92" width="7.29" height="7.29" fill="#111111"/><rect x="253.30" y="116.92" width="36.27" height="7.29" fill="#111111"/><rect x="50.49" y="124.16" width="14.54" height="7.29" fill="#111111"/><rect x="72.22" y="124.16" width="7.29" height="7.29" fill="#111111"/><rect x="86.70" y="124.16" width="7.29" height="7.29" fill="#111111"/><rect x="108.43" y="124.16" width="14.54" height="7.29" fill="#111111"/><rect x="151.89" y="124.16" width="7.29" height="7.29" fill="#111111"/><rect x="166.38" y="124.16" width="36.27" height="7.29" fill="#111111"/><rect x="217.08" y="124.16" width="14.54" height="7.29" fill="#111111"/><rect x="246.05" y="124.16" width="7.29" height="7.29" fill="#111111"/><rect x="267.78" y="124.16" width="21.78" height="7.29" fill="#111111"/><rect x="64.97" y="131.41" width="7.29" height="7.29" fill="#111111"/><rect x="79.46" y="131.41" width="7.29" height="7.29" fill="#111111"/><rect x="93.95" y="131.41" width="14.54" height="7.29" fill="#111111"/><rect x="122.92" y="131.41" width="36.27" height="7.29" fill="#111111"/><rect x="166.38" y="131.41" width="7.29" height="7.29" fill="#111111"/><rect x="195.35" y="131.41" width="7.29" height="7.29" fill="#111111"/><rect x="217.08" y="131.41" width="36.27" height="7.29" fill="#111111"/><rect x="50.49" y="138.65" width="14.54" height="7.29" fill="#111111"/><rect x="72.22" y="138.65" width="7.29" height="7.29" fill="#111111"/><rect x="86.70" y="138.65" width="7.29" height="7.29" fill="#111111"/><rect x="101.19" y="138.65" width="14.54" height="7.29" fill="#111111"/><rect x="130.16" y="138.65" width="21.78" height="7.29" fill="#111111"/><rect x="166.38" y="138.65" width="7.29" height="7.29" fill="#111111"/><rect x="180.86" y="138.65" width="7.29" height="7.29" fill="#111111"/><rect x="217.08" y="138.65" width="21.78" height="7.29" fill="#111111"/><rect x="246.05" y="138.65" width="7.29" height="7.29" fill="#111111"/><rect x="267.78" y="138.65" width="7.29" height="7.29" fill="#111111"/><rect x="50.49" y="145.89" width="7.29" height="7.29" fill="#111111"/><rect x="64.97" y="145.89" width="7.29" height="7.29" fill="#111111"/><rect x="79.46" y="145.89" width="7.29" height="7.29" fill="#111111"/><rect x="93.95" y="145.89" width="36.27" height="7.29" fill="#111111"/><rect x="166.38" y="145.89" width="7.29" height="7.29" fill="#111111"/><rect x="188.11" y="145.89" width="7.29" height="7.29" fill="#111111"/><rect x="202.59" y="145.89" width="14.54" height="7.29" fill="#111111"/><rect x="224.32" y="145.89" width="7.29" height="7.29" fill="#111111"/><rect x="238.81" y="145.89" width="7.29" height="7.29" fill="#111111"/><rect x="253.30" y="145.89" width="14.54" height="7.29" fill="#111111"/><rect x="50.49" y="153.14" width="21.78" height="7.29" fill="#111111"/><rect x="79.46" y="153.14" width="14.54" height="7.29" fill="#111111"/><rect x="144.65" y="153.14" width="7.29" height="7.29" fill="#111111"/><rect x="159.14" y="153.14" width="7.29" height="7.29" fill="#111111"/><rect x="180.86" y="153.14" width="14.54" height="7.29" fill="#111111"/><rect x="224.32" y="153.14" width="14.54" height="7.29" fill="#111111"/><rect x="253.30" y="153.14" width="21.78" height="7.29" fill="#111111"/><rect x="282.27" y="153.14" width="7.29" height="7.29" fill="#111111"/><rect x="72.22" y="160.38" width="7.29" height="7.29" fill="#111111"/><rect x="86.70" y="160.38" width="14.54" height="7.29" fill="#111111"/><rect x="108.43" y="160.38" width="7.29" height="7.29" fill="#111111"/><rect x="130.16" y="160.38" width="21.78" height="7.29" fill="#111111"/><rect x="188.11" y="160.38" width="14.54" height="7.29" fill="#111111"/><rect x="209.84" y="160.38" width="58.00" height="7.29" fill="#111111"/><rect x="50.49" y="167.62" width="7.29" height="7.29" fill="#111111"/><rect x="64.97" y="167.62" width="7.29" height="7.29" fill="#111111"/><rect x="79.46" y="167.62" width="7.29" height="7.29" fill="#111111"/><rect x="115.68" y="167.62" width="21.78" height="7.29" fill="#111111"/><rect x="144.65" y="167.62" width="21.78" height="7.29" fill="#111111"/><rect x="173.62" y="167.62" width="21.78" height="7.29" fill="#111111"/><rect x="202.59" y="167.62" width="7.29" height="7.29" fill="#111111"/><rect x="231.57" y="167.62" width="14.54" height="7.29" fill="#111111"/><rect x="253.30" y="167.62" width="7.29" height="7.29" fill="#111111"/><rect x="267.78" y="167.62" width="7.29" height="7.29" fill="#111111"/><rect x="282.27" y="167.62" width="7.29" height="7.29" fill="#111111"/><rect x="50.49" y="174.86" width="14.54" height="7.29" fill="#111111"/><rect x="72.22" y="174.86" width="7.29" height="7.29" fill="#111111"/><rect x="93.95" y="174.86" width="14.54" height="7.29" fill="#111111"/><rect x="115.68" y="174.86" width="7.29" height="7.29" fill="#111111"/><rect x="130.16" y="174.86" width="14.54" height="7.29" fill="#111111"/><rect x="159.14" y="174.86" width="36.27" height="7.29" fill="#111111"/><rect x="217.08" y="174.86" width="14.54" height="7.29" fill="#111111"/><rect x="246.05" y="174.86" width="7.29" height="7.29" fill="#111111"/><rect x="260.54" y="174.86" width="14.54" height="7.29" fill="#111111"/><rect x="282.27" y="174.86" width="7.29" height="7.29" fill="#111111"/><rect x="64.97" y="182.11" width="29.02" height="7.29" fill="#111111"/><rect x="122.92" y="182.11" width="14.54" height="7.29" fill="#111111"/><rect x="144.65" y="182.11" width="7.29" height="7.29" fill="#111111"/><rect x="159.14" y="182.11" width="14.54" height="7.29" fill="#111111"/><rect x="188.11" y="182.11" width="14.54" height="7.29" fill="#111111"/><rect x="209.84" y="182.11" width="14.54" height="7.29" fill="#111111"/><rect x="253.30" y="182.11" width="21.78" height="7.29" fill="#111111"/><rect x="282.27" y="182.11" width="7.29" height="7.29" fill="#111111"/><rect x="50.49" y="189.35" width="14.54" height="7.29" fill="#111111"/><rect x="86.70" y="189.35" width="14.54" height="7.29" fill="#111111"/><rect x="122.92" y="189.35" width="7.29" height="7.29" fill="#111111"/><rect x="137.41" y="189.35" width="21.78" height="7.29" fill="#111111"/><rect x="166.38" y="189.35" width="14.54" height="7.29" fill="#111111"/><rect x="188.11" y="189.35" width="7.29" height="7.29" fill="#111111"/><rect x="246.05" y="189.35" width="7.29" height="7.29" fill="#111111"/><rect x="260.54" y="189.35" width="7.29" height="7.29" fill="#111111"/><rect x="275.03" y="189.35" width="14.54" height="7.29" fill="#111111"/><rect x="50.49" y="196.59" width="7.29" height="7.29" fill="#111111"/><rect x="72.22" y="196.59" width="7.29" height="7.29" fill="#111111"/><rect x="86.70" y="196.59" width="7.29" height="7.29" fill="#111111"/><rect x="101.19" y="196.59" width="7.29" height="7.29" fill="#111111"/><rect x="122.92" y="196.59" width="7.29" height="7.29" fill="#111111"/><rect x="137.41" y="196.59" width="21.78" height="7.29" fill="#111111"/><rect x="166.38" y="196.59" width="14.54" height="7.29" fill="#111111"/><rect x="188.11" y="196.59" width="7.29" height="7.29" fill="#111111"/><rect x="217.08" y="196.59" width="7.29" height="7.29" fill="#111111"/><rect x="246.05" y="196.59" width="14.54" height="7.29" fill="#111111"/><rect x="50.49" y="203.84" width="7.29" height="7.29" fill="#111111"/><rect x="64.97" y="203.84" width="7.29" height="7.29" fill="#111111"/><rect x="86.70" y="203.84" width="14.54" height="7.29" fill="#111111"/><rect x="108.43" y="203.84" width="7.29" height="7.29" fill="#111111"/><rect x="122.92" y="203.84" width="14.54" height="7.29" fill="#111111"/><rect x="144.65" y="203.84" width="7.29" height="7.29" fill="#111111"/><rect x="159.14" y="203.84" width="7.29" height="7.29" fill="#111111"/><rect x="173.62" y="203.84" width="14.54" height="7.29" fill="#111111"/><rect x="217.08" y="203.84" width="43.51" height="7.29" fill="#111111"/><rect x="267.78" y="203.84" width="21.78" height="7.29" fill="#111111"/><rect x="50.49" y="211.08" width="7.29" height="7.29" fill="#111111"/><rect x="64.97" y="211.08" width="14.54" height="7.29" fill="#111111"/><rect x="130.16" y="211.08" width="14.54" height="7.29" fill="#111111"/><rect x="151.89" y="211.08" width="7.29" height="7.29" fill="#111111"/><rect x="166.38" y="211.08" width="36.27" height="7.29" fill="#111111"/><rect x="209.84" y="211.08" width="21.78" height="7.29" fill="#111111"/><rect x="238.81" y="211.08" width="14.54" height="7.29" fill="#111111"/><rect x="267.78" y="211.08" width="14.54" height="7.29" fill="#111111"/><rect x="50.49" y="218.32" width="14.54" height="7.29" fill="#111111"/><rect x="79.46" y="218.32" width="7.29" height="7.29" fill="#111111"/><rect x="93.95" y="218.32" width="7.29" height="7.29" fill="#111111"/><rect x="115.68" y="218.32" width="58.00" height="7.29" fill="#111111"/><rect x="188.11" y="218.32" width="14.54" height="7.29" fill="#111111"/><rect x="217.08" y="218.32" width="50.75" height="7.29" fill="#111111"/><rect x="275.03" y="218.32" width="7.29" height="7.29" fill="#111111"/><rect x="108.43" y="225.57" width="7.29" height="7.29" fill="#111111"/><rect x="122.92" y="225.57" width="21.78" height="7.29" fill="#111111"/><rect x="159.14" y="225.57" width="7.29" height="7.29" fill="#111111"/><rect x="217.08" y="225.57" width="14.54" height="7.29" fill="#111111"/><rect x="253.30" y="225.57" width="7.29" height="7.29" fill="#111111"/><rect x="267.78" y="225.57" width="14.54" height="7.29" fill="#111111"/><rect x="50.49" y="232.81" width="50.75" height="7.29" fill="#111111"/><rect x="108.43" y="232.81" width="7.29" height="7.29" fill="#111111"/><rect x="122.92" y="232.81" width="14.54" height="7.29" fill="#111111"/><rect x="144.65" y="232.81" width="7.29" height="7.29" fill="#111111"/><rect x="159.14" y="232.81" width="14.54" height="7.29" fill="#111111"/><rect x="180.86" y="232.81" width="14.54" height="7.29" fill="#111111"/><rect x="209.84" y="232.81" width="21.78" height="7.29" fill="#111111"/><rect x="238.81" y="232.81" width="7.29" height="7.29" fill="#111111"/><rect x="253.30" y="232.81" width="7.29" height="7.29" fill="#111111"/><rect x="267.78" y="232.81" width="7.29" height="7.29" fill="#111111"/><rect x="50.49" y="240.05" width="7.29" height="7.29" fill="#111111"/><rect x="93.95" y="240.05" width="7.29" height="7.29" fill="#111111"/><rect x="108.43" y="240.05" width="14.54" height="7.29" fill="#111111"/><rect x="130.16" y="240.05" width="14.54" height="7.29" fill="#111111"/><rect x="151.89" y="240.05" width="21.78" height="7.29" fill="#111111"/><rect x="180.86" y="240.05" width="21.78" height="7.29" fill="#111111"/><rect x="217.08" y="240.05" width="14.54" height="7.29" fill="#111111"/><rect x="253.30" y="240.05" width="21.78" height="7.29" fill="#111111"/><rect x="50.49" y="247.30" width="7.29" height="7.29" fill="#111111"/><rect x="64.97" y="247.30" width="21.78" height="7.29" fill="#111111"/><rect x="93.95" y="247.30" width="7.29" height="7.29" fill="#111111"/><rect x="108.43" y="247.30" width="29.02" height="7.29" fill="#111111"/><rect x="159.14" y="247.30" width="7.29" height="7.29" fill="#111111"/><rect x="188.11" y="247.30" width="14.54" height="7.29" fill="#111111"/><rect x="209.84" y="247.30" width="50.75" height="7.29" fill="#111111"/><rect x="282.27" y="247.30" width="7.29" height="7.29" fill="#111111"/><rect x="50.49" y="254.54" width="7.29" height="7.29" fill="#111111"/><rect x="64.97" y="254.54" width="21.78" height="7.29" fill="#111111"/><rect x="93.95" y="254.54" width="7.29" height="7.29" fill="#111111"/><rect x="108.43" y="254.54" width="7.29" height="7.29" fill="#111111"/><rect x="137.41" y="254.54" width="14.54" height="7.29" fill="#111111"/><rect x="166.38" y="254.54" width="36.27" height="7.29" fill="#111111"/><rect x="209.84" y="254.54" width="7.29" height="7.29" fill="#111111"/><rect x="224.32" y="254.54" width="14.54" height="7.29" fill="#111111"/><rect x="246.05" y="254.54" width="7.29" height="7.29" fill="#111111"/><rect x="267.78" y="254.54" width="21.78" height="7.29" fill="#111111"/><rect x="50.49" y="261.78" width="7.29" height="7.29" fill="#111111"/><rect x="64.97" y="261.78" width="21.78" height="7.29" fill="#111111"/><rect x="93.95" y="261.78" width="7.29" height="7.29" fill="#111111"/><rect x="122.92" y="261.78" width="7.29" height="7.29" fill="#111111"/><rect x="137.41" y="261.78" width="29.02" height="7.29" fill="#111111"/><rect x="173.62" y="261.78" width="7.29" height="7.29" fill="#111111"/><rect x="188.11" y="261.78" width="7.29" height="7.29" fill="#111111"/><rect x="202.59" y="261.78" width="21.78" height="7.29" fill="#111111"/><rect x="231.57" y="261.78" width="7.29" height="7.29" fill="#111111"/><rect x="246.05" y="261.78" width="14.54" height="7.29" fill="#111111"/><rect x="275.03" y="261.78" width="14.54" height="7.29" fill="#111111"/><rect x="50.49" y="269.03" width="7.29" height="7.29" fill="#111111"/><rect x="93.95" y="269.03" width="7.29" height="7.29" fill="#111111"/><rect x="130.16" y="269.03" width="7.29" height="7.29" fill="#111111"/><rect x="144.65" y="269.03" width="21.78" height="7.29" fill="#111111"/><rect x="188.11" y="269.03" width="14.54" height="7.29" fill="#111111"/><rect x="209.84" y="269.03" width="14.54" height="7.29" fill="#111111"/><rect x="231.57" y="269.03" width="58.00" height="7.29" fill="#111111"/><rect x="50.49" y="276.27" width="50.75" height="7.29" fill="#111111"/><rect x="108.43" y="276.27" width="21.78" height="7.29" fill="#111111"/><rect x="144.65" y="276.27" width="14.54" height="7.29" fill="#111111"/><rect x="166.38" y="276.27" width="14.54" height="7.29" fill="#111111"/><rect x="195.35" y="276.27" width="7.29" height="7.29" fill="#111111"/><rect x="217.08" y="276.27" width="14.54" height="7.29" fill="#111111"/><rect x="246.05" y="276.27" width="14.54" height="7.29" fill="#111111"/><g transform="translate(82.0 324) scale(1)" fill="none" stroke="#0f9aa0"><circle cx="24" cy="24" r="21.5" stroke-width="1.6" stroke-dasharray="15.5 7" stroke-linecap="round"/><path d="M24 9.5 36.6 16.75v14.5L24 38.5 11.4 31.25v-14.5Z" stroke-width="1.4" stroke-linejoin="round" opacity=".75"/><path d="M13.5 25h5l2.6-6.5 3.9 13 3-9 1.8 2.5h4.7" stroke-width="1.8" stroke-linecap="round" stroke-linejoin="round"/></g><text x="138.0" y="356" font-size="22" font-weight="600" fill="#1f2328" font-family="system-ui, -apple-system, Segoe UI, Roboto, sans-serif">Android</text></svg>