<svg viewBox="0 0 340 400" xmlns="http://www.w3.org/2000/svg"><rect x="1" y="1" width="338" height="398" rx="26" fill="#ffffff" stroke="#0f9aa0" stroke-opacity=".55" stroke-width="2"/><rect x="36.0" y="30" width="268" height="268" rx="13.86" fill="#ffffff"/><rect x="54.48" y="48.48" width="64.74" height="9.29" fill="#111111"/><rect x="128.41" y="48.48" width="37.02" height="9.29" fill="#111111"/><rect x="174.62" y="48.48" width="18.53" height="9.29" fill="#111111"/><rect x="220.83" y="48.48" width="64.74" height="9.29" fill="#111111"/><rect x="54.48" y="57.72" width="9.29" height="9.29" fill="#111111"/><rect x="109.93" y="57.72" width="9.29" height="9.29" fill="#111111"/><rect x="128.41" y="57.72" width="9.29" height="9.29" fill="#111111"/><rect x="156.14" y="57.72" width="9.29" height="9.29" fill="#111111"/><rect x="183.86" y="57.72" width="9.29" height="9.29" fill="#111111"/><rect x="202.34" y="57.72" width="9.29" height="9.29" fill="#111111"/><rect x="220.83" y="57.72" width="9.29" height="9.29" fill="#111111"/><rect x="276.28" y="57.72" width="9.29" height="9.29" fill="#111111"/><rect x="54.48" y="66.97" width="9.29" height="9.29" fill="#111111"/><rect x="72.97" y="66.97" width="27.77" height="9.29" fill="#111111"/><rect x="109.93" y="66.97" width="9.29" height="9.29" fill="#111111"/><rect x="128.41" y="66.97" width="9.29" height="9.29" fill="#111111"/><rect x="146.90" y="66.97" width="9.29" height="9.29" fill="#111111"/><rect x="165.38" y="66.97" width="18.53" height="9.29" fill="#111111"/><rect x="220.83" y="66.97" width="9.29" height="9.29" fill="#111111"/><rect x="239.31" y="66.97" width="27.77" height="9.29" fill="#111111"/><rect x="276.28" y="66.97" width="9.29" height="9.29" fill="#111111"/><rect x="54.48" y="76.21" width="9.29" height="9.29" fill="#111111"/><rect x="72.97" y="76.21" width="27.77" height="9.29" fill="#111111"/><rect x="109.93" y="76.21" width="9.29" height="9.29" fill="#111111"/><rect x="146.90" y="76.21" width="18.53" height="9.29" fill="#111111"/><rect x="174.62" y="76.21" width="9.29" height="9.29" fill="#111111"/><rect x="193.10" y="76.21" width="9.29" height="9.29" fill="#111111"/><rect x="220.83" y="76.21" width="9.29" height="9.29" fill="#111111"/><rect x="239.31" y="76.21" width="27.77" height="9.29" fill="#111111"/><rect x="276.28" y="76.21" width="9.29" height="9.29" fill="#111111"/><rect x="54.48" y="85.45" width="9.29" height="9.29" fill="#111111"/><rect x="72.97" y="85.45" width="27.77" height="9.29" fill="#111111"/><rect x="109.93" y="85.45" width="9.29" height="9.29" fill="#111111"/><rect x="128.41" y="85.45" width="9.29" height="9.29" fill="#111111"/><rect x="165.38" y="85.45" width="46.26" height="9.29" fill="#111111"/><rect x="220.83" y="85.45" width="9.29" height="9.29" fill="#111111"/><rect x="239.31" y="85.45" width="27.77" height="9.29" fill="#111111"/><rect x="276.28" y="85.45" width="9.29" height="9.29" fill="#111111"/><rect x="54.48" y="94.69" width="9.29" height="9.29" fill="#111111"/><rect x="109.93" y="94.69" width="9.29" height="9.29" fill="#111111"/><rect x="174.62" y="94.69" width="18.53" height="9.29" fill="#111111"/><rect x="220.83" y="94.69" width="9.29" height="9.29" fill="#111111"/><rect x="276.28" y="94.69" width="9.29" height="9.29" fill="#111111"/><rect x="54.48" y="103.93" width="64.74" height="9.29" fill="#111111"/><rect x="128.41" y="103.93" width="9.29" height="9.29" fill="#111111"/><rect x="146.90" y="103.93" width="9.29" height="9.29" fill="#111111"/><rect x="165.38" y="103.93" width="9.29" height="9.29" fill="#111111"/><rect x="183.86" y="103.93" width="9.29" height="9.29" fill="#111111"/><rect x="202.34" y="103.93" width="9.29" height="9.29" fill="#111111"/><rect x="220.83" y="103.93" width="64.74" height="9.29" fill="#111111"/><rect x="137.66" y="113.17" width="46.26" height="9.29" fill="#111111"/><rect x="54.48" y="122.41" width="9.29" height="9.29" fill="#111111"/><rect x="82.21" y="122.41" width="55.50" height="9.29" fill="#111111"/><rect x="146.90" y="122.41" width="9.29" height="9.29" fill="#111111"/><rect x="165.38" y="122.41" width="9.29" height="9.29" fill="#111111"/><rect x="183.86" y="122.41" width="37.02" height="9.29" fill="#111111"/><rect x="239.31" y="122.41" width="9.29" height="9.29" fill="#111111"/><rect x="257.79" y="122.41" width="27.77" height="9.29" fill="#111111"/><rect x="54.48" y="131.66" width="9.29" height="9.29" fill="#111111"/><rect x="72.97" y="131.66" width="37.02" height="9.29" fill="#111111"/><rect x="128.41" y="131.66" width="9.29" height="9.29" fill="#111111"/><rect x="146.90" y="131.66" width="9.29" height="9.29" fill="#111111"/><rect x="183.86" y="131.66" width="18.53" height="9.29" fill="#111111"/><rect x="239.31" y="131.66" width="37.02" height="9.29" fill="#111111"/><rect x="72.97" y="140.90" width="18.53" height="9.29" fill="#111111"/><rect x="109.93" y="140.90" width="92.46" height="9.29" fill="#111111"/><rect x="239.31" y="140.90" width="18.53" height="9.29" fill="#111111"/><rect x="276.28" y="140.90" width="9.29" height="9.29" fill="#111111"/><rect x="63.72" y="150.14" width="9.29" height="9.29" fill="#111111"/><rect x="82.21" y="150.14" width="18.53" height="9.29" fill="#111111"/><rect x="119.17" y="150.14" width="9.29" height="9.29" fill="#111111"/><rect x="146.90" y="150.14" width="9.29" height="9.29" fill="#111111"/><rect x="165.38" y="150.14" width="9.29" height="9.29" fill="#111111"/><rect x="193.10" y="150.14" width="27.77" height="9.29" fill="#111111"/><rect x="230.07" y="150.14" width="9.29" height="9.29" fill="#111111"/><rect x="248.55" y="150.14" width="37.02" height="9.29" fill="#111111"/><rect x="63.72" y="159.38" width="9.29" height="9.29" fill="#111111"/><rect x="82.21" y="159.38" width="46.26" height="9.29" fill="#111111"/><rect x="137.66" y="159.38" width="18.53" height="9.29" fill="#111111"/><rect x="193.10" y="159.38" width="18.53" height="9.29" fill="#111111"/><rect x="220.83" y="159.38" width="9.29" height="9.29" fill="#111111"/><rect x="276.28" y="159.38" width="9.29" height="9.29" fill="#111111"/><rect x="54.48" y="168.62" width="9.29" height="9.29" fill="#111111"/><rect x="119.17" y="168.62" width="27.77" height="9.29" fill="#111111"/><rect x="165.38" y="168.62" width="46.26" height="9.29" fill="#111111"/><rect x="239.31" y="168.62" width="9.29" height="9.29" fill="#111111"/><rect x="267.03" y="168.62" width="9.29" height="9.29" fill="#111111"/><rect x="54.48" y="177.86" width="18.53" height="9.29" fill="#111111"/><rect x="82.21" y="177.86" width="18.53" height="9.29" fill="#111111"/><rect x="109.93" y="177.86" width="9.29" height="9.29" fill="#111111"/><rect x="137.66" y="177.86" width="18.53" height="9.29" fill="#111111"/><rect x="174.62" y="177.86" width="9.29" height="9.29" fill="#111111"/><rect x="193.10" y="177.86" width="9.29" height="9.29" fill="#111111"/><rect x="211.59" y="177.86" width="9.29" height="9.29" fill="#111111"/><rect x="239.31" y="177.86" width="46.26" height="9.29" fill="#111111"/><rect x="54.48" y="187.10" width="9.29" height="9.29" fill="#111111"/><rect x="82.21" y="187.10" width="9.29" height="9.29" fill="#111111"/><rect x="119.17" y="187.10" width="9.29" height="9.29" fill="#111111"/><rect x="137.66" y="187.10" width="18.53" height="9.29" fill="#111111"/><rect x="165.38" y="187.10" width="9.29" height="9.29" fill="#111111"/><rect x="193.10" y="187.10" width="9.29" height="9.29" fill="#111111"/><rect x="211.59" y="187.10" width="27.77" height="9.29" fill="#111111"/><rect x="248.55" y="187.10" width="18.53" height="9.29" fill="#111111"/><rect x="276.28" y="187.10" width="9.29" height="9.29" fill="#111111"/><rect x="54.48" y="196.34" width="9.29" height="9.29" fill="#111111"/><rect x="72.97" y="196.34" width="18.53" height="9.29" fill="#111111"/><rect x="100.69" y="196.34" width="18.53" height="9.29" fill="#111111"/><rect x="137.66" y="196.34" width="37.02" height="9.29" fill="#111111"/><rect x="183.86" y="196.34" width="9.29" height="9.29" fill="#111111"/><rect x="202.34" y="196.34" width="46.26" height="9.29" fill="#111111"/><rect x="257.79" y="196.34" width="18.53" height="9.29" fill="#111111"/><rect x="128.41" y="205.59" width="37.02" height="9.29" fill="#111111"/><rect x="202.34" y="205.59" width="9.29" height="9.29" fill="#111111"/><rect x="239.31" y="205.59" width="9.29" height="9.29" fill="#111111"/><rect x="257.79" y="205.59" width="18.53" height="9.29" fill="#111111"/><rect x="54.48" y="214.83" width="64.74" height="9.29" fill="#111111"/><rect x="128.41" y="214.83" width="27.77" height="9.29" fill="#111111"/><rect x="165.38" y="214.83" width="27.77" height="9.29" fill="#111111"/><rect x="202.34" y="214.83" width="9.29" height="9.29" fill="#111111"/><rect x="220.83" y="214.83" width="9.29" height="9.29" fill="#111111"/><rect x="239.31" y="214.83" width="9.29" height="9.29" fill="#111111"/><rect x="276.28" y="214.83" width="9.29" height="9.29" fill="#111111"/><rect x="54.48" y="224.07" width="9.29" height="9.29" fill="#111111"/><rect x="109.93" y="224.07" width="9.29" height="9.29" fill="#111111"/><rect x="128.41" y="224.07" width="37.02" height="9.29" fill="#111111"/><rect x="174.62" y="224.07" width="37.02" height="9.29" fill="#111111"/><rect x="239.31" y="224.07" width="9.29" height="9.29" fill="#111111"/><rect x="267.03" y="224.07" width="18.53" height="9.29" fill="#111111"/><rect x="54.48" y="233.31" width="9.29" height="9.29" fill="#111111"/><rect x="72.97" y="233.31" width="27.77" height="9.29" fill="#111111"/><rect x="109.93" y="233.31" width="9.29" height="9.29" fill="#111111"/><rect x="128.41" y="233.31" width="9.29" height="9.29" fill="#111111"/><rect x="146.90" y="233.31" width="18.53" height="9.29" fill="#111111"/><rect x="174.62" y="233.31" width="9.29" height="9.29" fill="#111111"/><rect x="193.10" y="233.31" width="55.50" height="9.29" fill="#111111"/><rect x="267.03" y="233.31" width="18.53" height="9.29" fill="#111111"/><rect x="54.48" y="242.55" width="9.29" height="9.29" fill="#111111"/><rect x="72.97" y="242.55" width="27.77" height="9.29" fill="#111111"/><rect x="109.93" y="242.55" width="9.29" height="9.29" fill="#111111"/><rect x="128.41" y="242.55" width="9.29" height="9.29" fill="#111111"/><rect x="165.38" y="242.55" width="37.02" height="9.29" fill="#111111"/><rect x="211.59" y="242.55" width="18.53" height="9.29" fill="#111111"/><rect x="267.03" y="242.55" width="18.53" height="9.29" fill="#111111"/><rect x="54.48" y="251.79" width="9.29" height="9.29" fill="#111111"/><rect x="72.97" y="251.79" width="27.77" height="9.29" fill="#111111"/><rect x="109.93" y="251.79" width="9.29" height="9.29" fill="#111111"/><rect x="137.66" y="251.79" width="9.29" height="9.29" fill="#111111"/><rect x="156.14" y="251.79" width="9.29" height="9.29" fill="#111111"/><rect x="174.62" y="251.79" width="9.29" height="9.29" fill="#111111"/><rect x="202.34" y="251.79" width="18.53" height="9.29" fill="#111111"/><rect x="239.31" y="251.79" width="46.26" height="9.29" fill="#111111"/><rect x="54.48" y="261.03" width="9.29" height="9.29" fill="#111111"/><rect x="109.93" y="261.03" width="9.29" height="9.29" fill="#111111"/><rect x="146.90" y="261.03" width="37.02" height="9.29" fill="#111111"/><rect x="220.83" y="261.03" width="27.77" height="9.29" fill="#111111"/><rect x="257.79" y="261.03" width="27.77" height="9.29" fill="#111111"/><rect x="54.48" y="270.28" width="64.74" height="9.29" fill="#111111"/><rect x="128.41" y="270.28" width="9.29" height="9.29" fill="#111111"/><rect x="146.90" y="270.28" width="37.02" height="9.29" fill="#111111"/><rect x="193.10" y="270.28" width="18.53" height="9.29" fill="#111111"/><rect x="220.83" y="270.28" width="9.29" height="9.29" fill="#111111"/><rect x="248.55" y="270.28" width="9.29" height="9.29" fill="#111111"/><rect x="276.28" y="270.28" width="9.29" height="9.29" fill="#111111"/><g transform="translate(82.0 324) scale(1)" fill="none" stroke="#0f9aa0"><circle cx="24" cy="24" r="21.5" stroke-width="1.6" stroke-dasharray="15.5 7" stroke-linecap="round"/><path d="M24 9.5 36.6 16.75v14.5L24 38.5 11.4 31.25v-14.5Z" stroke-width="1.4" stroke-linejoin="round" opacity=".75"/><path d="M13.5 25h5l2.6-6.5 3.9 13 3-9 1.8 2.5h4.7" stroke-width="1.8" stroke-linecap="round" stroke-linejoin="round"/></g><text x="138.0" y="356" font-size="22" font-weight="600" fill="#1f2328" font-family="system-ui, -apple-system, Segoe UI, Roboto, sans-serif">Telegram</text></svg>