<svg viewBox="0 0 800 220" xmlns="http://www.w3.org/2000/svg" font-family="sans-serif"><rect x="12" y="24" width="170" height="172" rx="16" fill="#2A9D8F"/><text x="28" y="54" font-size="12" font-weight="700" fill="#ffffff" fill-opacity="0.8" letter-spacing="1.5">СҰРАҚ</text><text x="26" y="82" font-size="15" font-weight="600" fill="#ffffff">LRRK2 пенентра</text><text x="26" y="102" font-size="15" font-weight="600" fill="#ffffff">нттылық</text><text x="26" y="122" font-size="15" font-weight="600" fill="#ffffff">себептері</text><text x="26" y="142" font-size="15" font-weight="600" fill="#ffffff">белгісіз</text><path d="M188 110 L206 110" stroke="#2A9D8F" stroke-width="3"/><path d="M200 104 L208 110 L200 116" fill="none" stroke="#2A9D8F" stroke-width="3"/><rect x="212" y="24" width="170" height="172" rx="16" fill="#6FCF97"/><text x="228" y="54" font-size="12" font-weight="700" fill="#ffffff" fill-opacity="0.8" letter-spacing="1.5">ӘДІС</text><text x="226" y="82" font-size="15" font-weight="600" fill="#ffffff">LRRK2</text><text x="226" y="102" font-size="15" font-weight="600" fill="#ffffff">мутациялы</text><text x="226" y="122" font-size="15" font-weight="600" fill="#ffffff">тышқандарды</text><text x="226" y="142" font-size="15" font-weight="600" fill="#ffffff">H1N1-мен</text><text x="226" y="162" font-size="15" font-weight="600" fill="#ffffff">зақымдау</text><path d="M388 110 L406 110" stroke="#2A9D8F" stroke-width="3"/><path d="M400 104 L408 110 L400 116" fill="none" stroke="#2A9D8F" stroke-width="3"/><rect x="412" y="24" width="170" height="172" rx="16" fill="#2A9D8F"/><text x="428" y="54" font-size="12" font-weight="700" fill="#ffffff" fill-opacity="0.8" letter-spacing="1.5">НӘТИЖЕ</text><text x="426" y="82" font-size="15" font-weight="600" fill="#ffffff">6 аптадан</text><text x="426" y="102" font-size="15" font-weight="600" fill="#ffffff">кейін мида</text><text x="426" y="122" font-size="15" font-weight="600" fill="#ffffff">фосфорланған</text><text x="426" y="142" font-size="15" font-weight="600" fill="#ffffff">ақуыздар өсті</text><path d="M588 110 L606 110" stroke="#2A9D8F" stroke-width="3"/><path d="M600 104 L608 110 L600 116" fill="none" stroke="#2A9D8F" stroke-width="3"/><rect x="612" y="24" width="170" height="172" rx="16" fill="#6FCF97"/><text x="628" y="54" font-size="12" font-weight="700" fill="#ffffff" fill-opacity="0.8" letter-spacing="1.5">МАҢЫЗЫ</text><text x="626" y="82" font-size="15" font-weight="600" fill="#ffffff">Инфекция нейро</text><text x="626" y="102" font-size="15" font-weight="600" fill="#ffffff">дегенерация</text><text x="626" y="122" font-size="15" font-weight="600" fill="#ffffff">триггері болуы</text><text x="626" y="142" font-size="15" font-weight="600" fill="#ffffff">мүмкін</text></svg>